<svg width="56" height="57" viewBox="0 0 56 57" fill="none" xmlns="http://www.w3.org/2000/svg">
<g clip-path="url(#clip0_52_249)">
<g clip-path="url(#clip1_52_249)">
<g clip-path="url(#clip2_52_249)">
<path d="M0 9.72396C0 4.5693 4.17867 0.390625 9.33333 0.390625H46.6667C51.8214 0.390625 56 4.5693 56 9.72396V47.0573C56 52.212 51.8214 56.3906 46.6667 56.3906H9.33333C4.17867 56.3906 0 52.212 0 47.0573V9.72396Z" fill="white"/>
<path fill-rule="evenodd" clip-rule="evenodd" d="M10.4153 27.4323C10.4153 27.4323 11.2317 27.2934 11.5681 27.656C11.9049 28.0183 11.6842 28.7681 11.2374 28.7805C10.7906 28.7929 10.3776 28.878 10.0845 28.557C9.79126 28.2359 9.86997 27.5907 10.4153 27.4323ZM19.2776 32.5491C19.199 32.5576 19.1158 32.5204 19.0305 32.4576C18.4452 31.6164 18.2338 28.7399 17.9651 28.5685C17.6865 28.391 16.6776 30.1623 14.6707 29.9719C13.8315 29.8922 12.9775 29.3315 12.4745 28.9431C12.5213 28.2896 12.5295 26.7633 13.7793 27.2596C14.5387 27.5611 15.839 28.3889 16.9809 26.9023C18.2435 25.2582 18.9399 25.7359 19.3575 26.0932C19.775 26.4506 19.4968 28.3092 20.1196 27.7895C20.7424 27.27 23.2571 24.044 23.2571 24.044C23.2571 24.044 25.204 22.0191 25.5021 24.1478C25.8004 26.2764 27.0698 28.6354 27.4061 28.5682C27.7428 28.5009 31.659 20.2924 32.22 19.7629C32.781 19.2332 34.6692 19.3027 34.5795 20.6613C34.4897 22.0199 34.2974 30.4642 34.2974 30.4642C34.2974 30.4642 34.0758 32.8438 34.4367 31.572C34.5864 31.0448 34.747 30.5691 34.948 30.0143C35.9145 26.8232 37.5609 21.3718 38.3813 18.5628C38.57 17.8907 38.7324 17.3138 38.8584 16.8704L38.8587 16.8691C38.9077 16.6636 38.9564 16.5008 39.0052 16.3555C39.0738 16.1174 39.1203 15.9599 39.1345 15.9184C39.1711 15.8134 39.274 15.7332 39.4184 15.6744C39.5635 15.5801 39.719 15.5752 39.8954 15.5706C40.3506 15.5285 40.9362 15.5897 41.4628 15.7444C41.6161 15.7507 41.783 15.8013 41.9407 15.9181C41.9407 15.9181 41.9501 15.9243 41.9634 15.9332C41.9671 15.9361 41.9708 15.9381 41.9745 15.9411C42.0075 15.9648 42.061 16.0113 42.1227 16.0881C42.1246 16.0906 42.1265 16.0936 42.1286 16.0958C42.1542 16.1281 42.18 16.1664 42.2062 16.21C42.5002 16.6549 42.6809 17.4749 42.4999 18.9294C42.0484 22.5586 41.6987 30.0246 41.6987 30.0246C41.6987 30.0246 41.6292 30.3818 42.3546 28.8093C42.3801 28.7546 42.4124 28.7074 42.442 28.6571C42.4813 28.6305 42.5252 28.5922 42.5797 28.5247C43.0278 27.9735 44.2325 27.65 45.0679 27.6565C45.42 27.7004 45.7149 27.7918 45.891 27.9066C46.2207 28.4241 46.0261 30.334 46.0261 30.334C45.3311 30.4003 44.0064 30.786 43.5367 30.8571C43.067 30.9288 42.3536 34.0739 41.3619 33.7523C40.3701 33.4306 38.1602 32.001 38.1602 31.8045C38.1602 31.6332 38.3339 29.544 38.3792 29.0047C38.3825 28.9674 38.3852 28.9329 38.3878 28.8985C38.3889 28.8885 38.3898 28.8769 38.3898 28.8769C38.4218 28.4522 38.3932 28.2672 38.203 28.6911C38.0392 29.0557 37.3273 31.3887 36.5337 33.9296C36.4498 34.1516 34.9496 38.8338 34.7526 39.4046C34.5177 40.0667 34.32 40.5736 34.1836 40.8358C33.976 41.1261 33.6963 41.3077 33.3057 41.1858C32.3314 40.8822 31.0975 39.4937 31.086 39.1491C31.0626 37.2062 31.1776 26.7589 30.7207 27.6295C30.252 28.5222 26.6068 34.7171 26.6068 34.7171C26.5458 34.7279 26.5007 34.726 26.4469 34.731C26.1888 34.7019 25.7889 34.6154 25.6783 34.3606C25.6722 34.3456 25.6642 34.332 25.6588 34.3162C25.6536 34.3005 25.6476 34.2826 25.6385 34.2538C25.589 34.0832 25.5687 33.8981 25.5251 33.7464C25.362 33.1788 25.101 32.3656 24.8273 31.538C24.4078 30.1272 23.9752 28.684 23.904 28.5247C23.765 28.2129 23.5622 28.3443 23.3803 28.5244C22.5668 29.2361 20.8385 32.3773 19.2776 32.5491Z" fill="#FFA202"/>
<path d="M9.3335 1.55697H46.6668V-0.776367H9.3335V1.55697ZM54.8335 9.72363V47.057H57.1668V9.72363H54.8335ZM46.6668 55.2236H9.3335V57.557H46.6668V55.2236ZM1.16683 47.057V9.72363H-1.1665V47.057H1.16683ZM9.3335 55.2236C4.82317 55.2236 1.16683 51.5673 1.16683 47.057H-1.1665C-1.1665 52.856 3.53451 57.557 9.3335 57.557V55.2236ZM54.8335 47.057C54.8335 51.5673 51.1772 55.2236 46.6668 55.2236V57.557C52.4659 57.557 57.1668 52.856 57.1668 47.057H54.8335ZM46.6668 1.55697C51.1772 1.55697 54.8335 5.21331 54.8335 9.72363H57.1668C57.1668 3.92465 52.4659 -0.776367 46.6668 -0.776367V1.55697ZM9.3335 -0.776367C3.53451 -0.776367 -1.1665 3.92465 -1.1665 9.72363H1.16683C1.16683 5.21331 4.82317 1.55697 9.3335 1.55697V-0.776367Z" fill="#EBEEF1"/>
</g>
</g>
</g>
<defs>
<clipPath id="clip0_52_249">
<rect y="0.390625" width="56" height="56" rx="10" fill="white"/>
</clipPath>
<clipPath id="clip1_52_249">
<rect width="56" height="56" fill="white" transform="translate(0 0.390625)"/>
</clipPath>
<clipPath id="clip2_52_249">
<rect width="56" height="56" fill="white" transform="translate(0 0.390625)"/>
</clipPath>
</defs>
</svg>
