<svg width="57" height="57" viewBox="0 0 57 57" fill="none" xmlns="http://www.w3.org/2000/svg">
<g clip-path="url(#clip0_52_263)">
<path d="M0.328125 11.5906C0.328125 5.40503 5.34253 0.390625 11.5281 0.390625H45.1281C51.3137 0.390625 56.3281 5.40503 56.3281 11.5906V45.1906C56.3281 51.3762 51.3137 56.3906 45.1281 56.3906H11.5281C5.34253 56.3906 0.328125 51.3762 0.328125 45.1906V11.5906Z" fill="white"/>
<path d="M43.579 12.0576H37.3096V28.8164H43.579V12.0576Z" fill="#00CEC8"/>
<path d="M35.1992 20.8574H28.9297V28.8157H35.1992V20.8574Z" fill="#00CEC8"/>
<path d="M27.2451 20.8574H20.9756V28.8157H27.2451V20.8574Z" fill="#00CEC8"/>
<path d="M13.0176 12.0576V44.7243H36.8279H37.3092H43.6389V31.0423H21.1563V37.011H37.3092V38.7599H19.3472V12.0576H13.0176Z" fill="#00CEC8"/>
<path d="M11.5278 1.55697H45.1278V-0.776367H11.5278V1.55697ZM55.1612 11.5903V45.1903H57.4944V11.5903H55.1612ZM45.1278 55.2237H11.5278V57.5569H45.1278V55.2237ZM1.49447 45.1903V11.5903H-0.838867V45.1903H1.49447ZM11.5278 55.2237C5.98654 55.2237 1.49447 50.7315 1.49447 45.1903H-0.838867C-0.838867 52.0202 4.69787 57.5569 11.5278 57.5569V55.2237ZM55.1612 45.1903C55.1612 50.7315 50.669 55.2237 45.1278 55.2237V57.5569C51.9577 57.5569 57.4944 52.0202 57.4944 45.1903H55.1612ZM45.1278 1.55697C50.669 1.55697 55.1612 6.04904 55.1612 11.5903H57.4944C57.4944 4.76037 51.9577 -0.776367 45.1278 -0.776367V1.55697ZM11.5278 -0.776367C4.69787 -0.776367 -0.838867 4.76037 -0.838867 11.5903H1.49447C1.49447 6.04904 5.98654 1.55697 11.5278 1.55697V-0.776367Z" fill="#EBEEF1"/>
</g>
<defs>
<clipPath id="clip0_52_263">
<rect width="56" height="56" fill="white" transform="translate(0.328125 0.390625)"/>
</clipPath>
</defs>
</svg>
