<svg width="57" height="57" viewBox="0 0 57 57" fill="none" xmlns="http://www.w3.org/2000/svg">
<g clip-path="url(#clip0_52_274)">
<g clip-path="url(#clip1_52_274)">
<g clip-path="url(#clip2_52_274)">
<mask id="mask0_52_274" style="mask-type:luminance" maskUnits="userSpaceOnUse" x="0" y="0" width="57" height="57">
<path d="M56.6562 0.390625H0.65625V56.3906H56.6562V0.390625Z" fill="white"/>
</mask>
<g mask="url(#mask0_52_274)">
<path d="M45.4562 0.390625H11.8562C5.67067 0.390625 0.65625 5.40504 0.65625 11.5906V45.1906C0.65625 51.3762 5.67067 56.3906 11.8562 56.3906H45.4562C51.6418 56.3906 56.6562 51.3762 56.6562 45.1906V11.5906C56.6562 5.40504 51.6418 0.390625 45.4562 0.390625Z" fill="#F49879"/>
<path d="M39.9892 29.3317C39.9892 28.7347 39.919 28.3133 39.8839 28.0676C39.6732 26.2415 39.1113 24.9773 38.9006 24.5559C38.8304 24.4156 38.7602 24.3103 38.6899 24.1698L38.6548 24.0996H38.5846C38.5143 24.0996 38.3739 24.0996 38.2334 24.1347C36.9693 24.24 35.9509 24.5208 35.3188 24.7315C35.2135 24.7666 35.1433 24.8018 35.0379 24.8369C35.0379 24.7667 35.0028 24.6964 35.0028 24.5911C34.757 22.9407 34.3005 21.7116 34.0546 21.1146C33.8088 20.4826 33.4929 19.8506 33.1417 19.2887C33.1066 19.2185 32.1233 17.568 30.5782 16.1634C30.2973 15.9176 29.7706 15.3909 28.8927 14.829C28.8225 14.7939 28.7874 14.7587 28.7523 14.7587L28.682 14.7236L28.6118 14.7587C28.5767 14.7939 28.5416 14.7939 28.4713 14.829C26.6101 16.1283 25.5216 17.7084 24.9949 18.4459C24.6437 18.9375 23.8009 20.2368 23.1688 21.8521C22.6772 23.0812 22.5016 24.0644 22.4665 24.5208C22.4665 24.5911 22.4314 24.6964 22.4314 24.7666C22.4314 24.7666 22.1504 24.6613 21.6238 24.4858C21.6238 24.4858 21.6238 24.4858 21.5887 24.4858C21.5887 24.4858 21.5185 24.4506 21.4131 24.4506C20.781 24.2751 19.868 24.0995 18.7794 23.9591C18.7794 23.9591 18.7794 23.9591 18.4633 24.6964C18.358 24.9071 18.2877 25.1178 18.2176 25.2934C17.6206 26.8385 17.4099 28.4889 17.5153 30.1745C17.5855 31.1929 17.7611 32.176 18.0771 33.1242C18.9198 35.7579 20.3947 37.935 22.5016 39.6909C22.8879 40.0068 23.6605 40.6389 24.7491 41.1305C26.4697 41.9382 28.0148 42.0436 28.7523 42.0436C28.8225 42.0436 28.8927 42.0436 28.9278 42.0436C28.963 42.0436 31.1752 41.9733 33.2471 40.8145C33.5631 40.6389 33.8791 40.4282 33.8791 40.4282C34.4058 40.077 34.7921 39.761 35.073 39.5504C36.1968 38.6374 37.1449 37.5136 37.9525 36.2494C39.006 34.5289 39.4976 32.9486 39.6732 32.176C39.9541 30.9471 39.9892 29.8584 39.9892 29.3317ZM28.7874 36.7411C28.7874 37.8999 28.5767 39.0939 28.1904 40.2877C26.7506 40.0068 24.1872 39.2344 22.1856 37.022C20.7108 35.4068 20.0787 33.6158 19.868 33.0188V32.9837C19.4115 31.6845 19.2359 30.3501 19.271 29.0156C19.271 28.6996 19.3763 27.5057 19.868 26.066V26.0308C19.9031 26.0308 19.9382 26.0308 19.9733 26.066C21.0619 26.2767 21.7994 26.5576 22.0803 26.6629C22.0803 26.6629 22.1856 26.6981 22.2909 26.7332C23.4498 27.2248 24.4681 28.0676 24.7491 28.2782C26.4346 29.6829 27.2422 31.1929 27.5232 31.7899C27.6636 32.1058 27.8041 32.457 27.8743 32.6677V32.7028C28.1904 33.5105 28.4713 34.2479 28.6469 35.1609C28.7874 35.8282 28.7874 36.3899 28.7874 36.7411ZM28.7523 30.2447C28.366 29.5775 27.8743 28.9103 27.3476 28.2782C27.1369 28.0325 26.8208 27.6462 26.3643 27.2248C26.1887 27.0492 25.7675 26.6981 25.2407 26.3118C24.8895 26.066 24.5384 25.8553 24.1872 25.6446C24.2574 25.0827 24.3277 24.5208 24.4681 23.9591C24.9247 22.0628 25.6972 20.6582 26.259 19.7803C26.5399 19.3589 27.1018 18.5512 27.9797 17.7084C28.2606 17.4275 28.5416 17.1817 28.8225 16.9359C30.1568 17.9894 31.2103 19.2536 31.9478 20.6582C32.1936 21.1497 32.6852 22.133 33.0364 23.4674C33.212 24.1698 33.3524 24.9071 33.4227 25.6094C32.4043 26.2064 31.4912 26.9088 30.6836 27.7516C30.1217 28.2782 29.4195 29.0859 28.7523 30.2447ZM36.6182 35.1961C36.0914 36.0739 35.4593 36.8464 34.7219 37.5136C33.4227 38.7076 31.8424 39.6206 30.0866 40.077C30.2973 39.3748 30.4377 38.6725 30.508 37.935C30.5431 37.4434 30.5782 36.6708 30.508 35.7228C30.4026 34.564 30.1217 33.37 29.7004 32.2463C30.0515 31.4387 30.5431 30.6661 31.0698 29.9638C31.8073 29.0156 32.5096 28.3835 32.8959 28.1027C33.5982 27.5409 34.4058 27.0492 35.2135 26.6981C35.9861 26.382 36.7586 26.1362 37.6013 25.9957C37.7418 26.4522 37.8471 26.9088 37.9525 27.3653C38.1281 28.4187 38.1983 29.2263 38.1983 29.2966C38.3036 30.0691 38.1632 32.6325 36.6182 35.1961Z" fill="white"/>
</g>
</g>
</g>
</g>
<defs>
<clipPath id="clip0_52_274">
<rect x="0.65625" y="0.390625" width="56" height="56" rx="10" fill="white"/>
</clipPath>
<clipPath id="clip1_52_274">
<rect width="56" height="56" fill="white" transform="translate(0.65625 0.390625)"/>
</clipPath>
<clipPath id="clip2_52_274">
<rect width="56" height="56" fill="white" transform="translate(0.65625 0.390625)"/>
</clipPath>
</defs>
</svg>
