<svg width="56" height="57" viewBox="0 0 56 57" fill="none" xmlns="http://www.w3.org/2000/svg">
<g clip-path="url(#clip0_52_289)">
<g clip-path="url(#clip1_52_289)">
<path d="M44.8 0.171875H11.2C5.01441 0.171875 0 5.18629 0 11.3719V44.9719C0 51.1575 5.01441 56.1719 11.2 56.1719H44.8C50.9856 56.1719 56 51.1575 56 44.9719V11.3719C56 5.18629 50.9856 0.171875 44.8 0.171875Z" fill="#BBBEAC"/>
<path fill-rule="evenodd" clip-rule="evenodd" d="M16.3098 38.0683V18.8012L16.3099 18.7991C16.3105 18.7916 16.3117 18.7749 16.3152 18.7507C16.3222 18.7021 16.3374 18.6234 16.3704 18.5246C16.4356 18.3287 16.5721 18.048 16.8625 17.7577C17.4379 17.1823 18.7088 16.4831 21.5073 16.4831C24.3057 16.4831 25.5767 17.1823 26.1521 17.7577C26.4424 18.048 26.5789 18.3287 26.6442 18.5246C26.6772 18.6234 26.6923 18.7021 26.6993 18.7507C26.7028 18.7749 26.7041 18.7916 26.7046 18.7991L26.7048 18.8012V38.0683C25.7858 37.3073 24.2052 36.6956 21.5073 36.6956C18.8093 36.6956 17.2287 37.3073 16.3098 38.0683ZM27.2823 40.1603C26.7048 40.1603 26.7048 40.1609 26.7048 40.1615V40.1644V40.1673L26.7049 40.1707C26.7049 40.1715 26.7051 40.1711 26.7048 40.1673C26.7042 40.1598 26.7028 40.1421 26.6993 40.1179C26.6923 40.0693 26.6772 39.9907 26.6442 39.8918C26.5789 39.6961 26.4424 39.4154 26.1521 39.125C25.5767 38.5498 24.3057 37.8506 21.5073 37.8506C18.7088 37.8506 17.4379 38.5498 16.8625 39.125C16.5721 39.4154 16.4356 39.6961 16.3704 39.8918C16.3374 39.9907 16.3222 40.0693 16.3152 40.1179C16.3117 40.1421 16.3105 40.1588 16.3099 40.1664C16.3096 40.1701 16.3096 40.1715 16.3096 40.1707L16.3099 40.1664L16.3098 40.1644V40.1624C16.3098 40.1619 16.3098 40.1603 15.7323 40.1603H15.1548V18.7931H15.7323C15.1548 18.7931 15.1548 18.7937 15.1548 18.7931V18.7907V18.7881L15.1549 18.7819L15.1552 18.7662C15.1556 18.7543 15.1563 18.7396 15.1574 18.7223C15.1598 18.6876 15.164 18.6421 15.1719 18.5873C15.1875 18.4781 15.2174 18.3311 15.2746 18.1593C15.3898 17.8137 15.6143 17.3725 16.0457 16.9411C16.9142 16.0726 18.5307 15.3281 21.5073 15.3281C24.4838 15.3281 26.1004 16.0726 26.9688 16.9411C27.0885 17.0608 27.1923 17.1813 27.2823 17.3003C27.3723 17.1813 27.476 17.0608 27.5957 16.9411C28.4642 16.0726 30.0807 15.3281 33.0573 15.3281C36.0338 15.3281 37.6504 16.0726 38.5188 16.9411C38.9503 17.3725 39.1747 17.8137 39.2899 18.1593C39.3472 18.3311 39.377 18.4781 39.3927 18.5873C39.4005 18.6421 39.4047 18.6876 39.4071 18.7223C39.4082 18.7396 39.4089 18.7543 39.4094 18.7662L39.4096 18.7819L39.4098 18.7881V18.7907C39.4098 18.7913 39.4098 18.7931 38.8323 18.7931H39.4098V40.1592L38.8323 40.1603C38.2548 40.1603 38.2548 40.1609 38.2548 40.1615V40.1644V40.1673L38.2549 40.1707C38.2549 40.1715 38.2551 40.1711 38.2548 40.1673C38.2542 40.1598 38.2528 40.1421 38.2493 40.1179C38.2423 40.0693 38.2272 39.9907 38.1942 39.8918C38.1289 39.6961 37.9924 39.4154 37.7021 39.125C37.1267 38.5498 35.8557 37.8506 33.0573 37.8506C30.2588 37.8506 28.9879 38.5498 28.4125 39.125C28.1221 39.4154 27.9856 39.6961 27.9204 39.8918C27.8874 39.9907 27.8722 40.0693 27.8652 40.1179C27.8617 40.1421 27.8605 40.1588 27.8599 40.1664C27.8598 40.1683 27.8596 40.1697 27.8596 40.1704L27.8599 40.1664L27.8598 40.1644V40.1624C27.8598 40.1619 27.8598 40.1603 27.2823 40.1603ZM27.8596 40.1704C27.8596 40.1708 27.8596 40.171 27.8596 40.1704V40.1704ZM27.8598 18.8012V38.0683C28.7787 37.3073 30.3593 36.6956 33.0573 36.6956C35.7552 36.6956 37.3358 37.3073 38.2548 38.0683V18.8012L38.2546 18.7991C38.2541 18.7916 38.2528 18.7749 38.2493 18.7507C38.2423 18.7021 38.2272 18.6234 38.1942 18.5246C38.1289 18.3287 37.9924 18.048 37.7021 17.7577C37.1267 17.1823 35.8557 16.4831 33.0573 16.4831C30.2588 16.4831 28.9879 17.1823 28.4125 17.7577C28.1221 18.048 27.9856 18.3287 27.9204 18.5246C27.8874 18.6234 27.8722 18.7021 27.8652 18.7507C27.8617 18.7749 27.8605 18.7916 27.8599 18.7991L27.8598 18.8012Z" fill="black"/>
</g>
</g>
<defs>
<clipPath id="clip0_52_289">
<rect width="56" height="56" fill="white" transform="translate(0 0.171875)"/>
</clipPath>
<clipPath id="clip1_52_289">
<rect width="56" height="56" fill="white" transform="translate(0 0.171875)"/>
</clipPath>
</defs>
</svg>
