<svg width="57" height="57" viewBox="0 0 57 57" fill="none" xmlns="http://www.w3.org/2000/svg">
<g clip-path="url(#clip0_52_309)">
<g clip-path="url(#clip1_52_309)">
<path d="M0.65625 9.50521C0.65625 4.35055 4.83492 0.171875 9.98958 0.171875H47.3229C52.4776 0.171875 56.6562 4.35055 56.6562 9.50521V46.8385C56.6562 51.9932 52.4776 56.1719 47.3229 56.1719H9.98958C4.83492 56.1719 0.65625 51.9932 0.65625 46.8385V9.50521Z" fill="black"/>
<path d="M18.3386 43.3851C18.2462 43.3512 18.0849 43.2693 17.98 43.2031C17.7468 43.056 14.5125 39.8448 14.2976 39.5469C14.0124 39.1516 13.9208 38.8176 14.0063 38.4841C14.075 38.216 14.2073 38.0176 14.4995 37.7449C14.7614 37.5002 14.7701 37.4944 17.8904 35.4926C21.3785 33.2548 21.8826 32.9554 22.3696 32.8317C22.6491 32.7608 22.9904 32.7818 23.2051 32.8833C23.4273 32.9883 24.4171 33.9775 24.5218 34.1994C24.6144 34.3954 24.6433 34.7358 24.5875 34.9747C24.4683 35.4861 24.2311 35.8877 21.9903 39.372C21.3272 40.4031 20.6475 41.4669 20.4799 41.7359C19.8224 42.7918 19.5193 43.1586 19.1586 43.335C18.9152 43.4541 18.5816 43.4745 18.3386 43.3851ZM35.3904 23.4979C35.1592 23.418 34.9303 23.2332 34.4552 22.7428C34.1881 22.4671 34.0219 22.2664 33.9657 22.1512C33.8622 21.9392 33.8264 21.6421 33.8764 21.4087C33.9893 20.8826 34.2138 20.499 36.4059 17.0861C37.1431 15.9384 37.9144 14.7305 38.1199 14.4019C38.3255 14.0732 38.5855 13.6893 38.6977 13.5486C39.323 12.7646 39.9599 12.6904 40.7272 13.3121C40.8617 13.421 41.6697 14.2122 42.5229 15.0699C44.1109 16.6667 44.2893 16.8703 44.4307 17.2484C44.5257 17.5026 44.5133 17.826 44.3994 18.0589C44.2079 18.4501 43.8521 18.7564 42.8574 19.386C42.5376 19.5884 41.4551 20.2817 40.4519 20.9268C37.7352 22.6733 36.9201 23.1767 36.5035 23.3656C36.0821 23.5567 35.6941 23.6028 35.3904 23.4979Z" fill="#D437FD"/>
<path d="M26.8222 46.8026C26.1267 46.7013 25.7384 46.3463 25.6621 45.742C25.6166 45.3814 25.6798 44.9514 25.9729 43.6273C26.1238 42.9458 26.366 41.838 26.5111 41.1655C27.4468 36.8296 27.5717 36.4013 28.0205 35.9958C28.2962 35.7466 28.4174 35.7204 29.2948 35.7204C29.8503 35.7204 30.0951 35.7326 30.2056 35.7658C30.4223 35.8311 30.6612 36.0197 30.811 36.244C31.1129 36.6962 31.2291 37.1439 32.1678 41.4752C32.3932 42.5154 32.6423 43.6451 32.7213 43.9859C32.8002 44.3266 32.8883 44.7301 32.9169 44.8826C32.9787 45.212 32.9876 45.7591 32.9344 45.961C32.8504 46.2793 32.6402 46.5222 32.3232 46.6674C31.9706 46.8287 31.8256 46.8368 29.3313 46.8337C28.0581 46.8322 26.929 46.8182 26.8222 46.8026ZM22.5004 23.5379C21.978 23.4383 21.5399 23.1826 18.1313 20.9883C17.2257 20.4055 16.1472 19.7167 15.7348 19.4579C14.5767 18.7313 14.2518 18.463 14.0563 18.072C13.875 17.7092 13.9315 17.2811 14.2168 16.8573C14.3523 16.6558 17.5208 13.4692 17.789 13.2645C18.3723 12.8195 18.8813 12.7831 19.3676 13.1516C19.6474 13.3637 19.933 13.7223 20.3635 14.4025C20.56 14.713 21.2582 15.8033 21.9149 16.8254C24.164 20.3263 24.3962 20.7144 24.5558 21.2398C24.6521 21.5572 24.636 21.9034 24.5138 22.1402C24.3906 22.3788 23.3852 23.3683 23.1687 23.4641C23.0096 23.5345 22.6759 23.5713 22.5004 23.5379Z" fill="#01F0E5"/>
<path d="M39.3345 43.3165C38.93 43.1144 38.6585 42.7958 37.9873 41.7358C37.749 41.3592 37.0287 40.2343 36.3866 39.236C35.1406 37.2981 34.5901 36.4228 34.2882 35.8994C33.8313 35.1071 33.7412 34.6043 33.9769 34.1622C34.116 33.9013 35.0257 32.9974 35.2659 32.8815C35.5018 32.7677 35.8564 32.7555 36.1686 32.8503C36.6718 33.0032 37.0395 33.2238 40.5155 35.4578C41.5376 36.1148 42.6289 36.8116 42.9404 37.0063C43.2519 37.2011 43.6187 37.4434 43.7555 37.545C44.5849 38.1605 44.7285 38.785 44.2072 39.5079C44.0214 39.7653 40.7703 43.0077 40.5488 43.1563C40.1244 43.4412 39.6968 43.4976 39.3345 43.3165ZM11.4453 31.7954C10.9548 31.6631 10.6882 31.2924 10.5982 30.6173C10.5752 30.4452 10.5676 29.5567 10.5756 28.0088C10.5891 25.4142 10.5826 25.4973 10.8042 25.0801C10.9733 24.7616 11.2375 24.593 11.6597 24.5342C11.971 24.4909 12.3695 24.5334 13.0453 24.6817C13.3233 24.7427 14.5997 25.0214 15.882 25.3011C18.5267 25.8777 19.793 26.1654 20.2091 26.2841C21.0215 26.5156 21.4107 26.765 21.6008 27.1758C21.6651 27.3146 21.6695 27.3787 21.6695 28.1719V29.0196L21.5794 29.203C21.4084 29.5512 21.0276 29.8169 20.4459 29.9937C19.9243 30.1523 18.9445 30.377 15.9472 31.0253C15.0237 31.225 13.8939 31.474 13.4366 31.5785C12.9792 31.6831 12.4996 31.7847 12.3707 31.8043C12.067 31.8505 11.6342 31.8463 11.4453 31.7954ZM28.3649 20.5793C27.9019 20.4099 27.6527 20.0887 27.4292 19.3735C27.299 18.9568 26.9753 17.5528 26.462 15.1786C26.2352 14.1294 25.9565 12.8603 25.8427 12.3582C25.6146 11.3529 25.5524 10.9358 25.5853 10.6342C25.6472 10.0682 25.931 9.74625 26.5137 9.58095C26.7082 9.52577 26.9015 9.52148 29.2014 9.52148C31.8924 9.52148 31.8835 9.52096 32.2717 9.70439C32.5207 9.82201 32.744 10.0606 32.8264 10.2968C32.8735 10.4317 32.8854 10.5618 32.8835 10.9235C32.8815 11.325 32.867 11.4429 32.7634 11.9017C32.6987 12.1887 32.4182 13.4651 32.1403 14.7384C31.1824 19.1257 31.1063 19.432 30.8538 19.9188C30.7128 20.1908 30.4965 20.419 30.2773 20.5271C30.1188 20.6051 30.0918 20.6076 29.2991 20.6151C28.6835 20.621 28.4548 20.6122 28.3649 20.5793Z" fill="#F8005B"/>
</g>
</g>
<defs>
<clipPath id="clip0_52_309">
<rect width="56" height="56" fill="white" transform="translate(0.65625 0.171875)"/>
</clipPath>
<clipPath id="clip1_52_309">
<rect width="56" height="56" fill="white" transform="translate(0.65625 0.171875)"/>
</clipPath>
</defs>
</svg>
