<svg width="32" height="32" viewBox="0 0 32 32" fill="none" xmlns="http://www.w3.org/2000/svg">
<path d="M25.6916 26.0563C27.3412 25.6435 28.5716 25.2323 28.5716 25.2323C28.9503 25.0389 29.2672 24.7431 29.4861 24.3785C29.7051 24.0139 29.8173 23.5951 29.81 23.1699V20.6947C29.1748 22.9436 27.7006 24.8628 25.6916 26.0563ZM27.3412 18.6339L24.4612 17.3955V19.0403C24.3786 19.7648 24.1541 20.466 23.8005 21.1037C23.4469 21.7415 22.9711 22.3033 22.4004 22.7571C22.8132 22.7571 22.8132 23.1699 22.8132 23.5827L22.4004 24.4067L24.05 25.2323C27.3492 23.9939 28.1748 20.2835 28.586 18.2211L27.3412 18.6339ZM16.2068 23.5827C15.7509 22.8293 15.4689 21.9837 15.3812 21.1075V27.7059C15.4244 28.019 15.5695 28.3091 15.794 28.5315H17.0308C18.7415 28.42 20.418 28.0005 21.9796 27.2931C20.8027 27.1405 19.6744 26.7286 18.676 26.0869C17.6777 25.4453 16.8343 24.5899 16.2068 23.5827ZM19.506 15.3347C19.4849 15.784 19.6321 16.225 19.9188 16.5715C20.33 16.5715 20.7428 16.5715 21.1556 15.7459C21.5684 14.9203 21.1556 14.0963 20.33 14.0963C20.098 14.2149 19.9004 14.391 19.7561 14.6078C19.6118 14.8247 19.5257 15.075 19.506 15.3347ZM15.794 12.8595V17.8083C16.0245 16.123 16.6738 14.5224 17.6826 13.1529C18.6913 11.7833 20.0273 10.6884 21.5684 9.96833L17.0308 11.2051C16.2068 11.2099 15.794 12.0355 15.794 12.8595ZM14.1444 12.8595C14.0883 12.1033 14.3082 11.3523 14.7633 10.7458C15.2184 10.1392 15.8778 9.71804 16.6196 9.56033L26.9284 7.08673L18.2692 3.78753H16.6196L5.07237 6.26113C5.07237 6.26113 3.83397 6.67393 3.83397 7.49793V8.32033L3.00997 9.97313V12.4467L2.18437 12.8595V13.6851L3.00997 14.0963V16.1603L3.83397 17.3971V22.7587C3.83156 22.8678 3.85127 22.9762 3.89191 23.0775C3.93255 23.1787 3.99328 23.2707 4.07043 23.3479C4.14757 23.425 4.23955 23.4857 4.3408 23.5264C4.44205 23.567 4.55049 23.5867 4.65957 23.5843C5.48357 23.9955 10.8452 26.4643 14.1444 27.7075V12.8595ZM24.4548 12.8595L27.3348 14.0963L28.1604 13.6851C27.6583 13.0554 27.2419 12.3619 26.922 11.6227C26.17 11.1651 25.3245 10.8829 24.4484 10.7971L24.4548 12.8595ZM28.9908 8.32033L23.218 9.55713C24.0158 9.34227 24.8564 9.34358 25.6535 9.56093C26.4507 9.77828 27.1756 10.2038 27.754 10.7939C28.2486 11.0988 28.6589 11.523 28.9471 12.0276C29.2353 12.5321 29.3922 13.101 29.4036 13.6819V8.32033C29.4036 7.91073 28.9908 7.91073 28.9908 8.32033ZM30.8692 6.24033C30.5656 5.93369 30.1742 5.72904 29.7492 5.65473L19.162 1.58593C18.7186 1.34412 18.2231 1.21356 17.7181 1.20548C17.2131 1.1974 16.7137 1.31203 16.2628 1.53953C14.6452 1.94433 4.83877 3.98913 4.67077 4.02753C3.86656 4.19261 3.14224 4.62587 2.6164 5.25634C2.09057 5.88682 1.79439 6.67715 1.77637 7.49793V7.76673L1.01637 9.28033L0.960365 11.2419L0.134766 11.6547V14.7635L0.545966 15.1763V16.7571L1.37157 17.9939V22.7571C1.38642 23.4118 1.58959 24.0484 1.95677 24.5906C2.32394 25.1329 2.83957 25.5579 3.44197 25.8147C3.96997 25.9907 6.42117 27.0355 8.79077 28.0451C14.6484 30.5411 15.3092 30.7955 15.5956 30.7955H16.4212L17.346 30.7859C18.9332 30.5219 22.8916 29.2995 25.7844 28.4067C27.1796 27.9747 28.6228 27.5299 28.7924 27.4979L29.0676 27.4307C29.9096 27.0842 30.6281 26.4928 31.1299 25.7331C31.6317 24.9733 31.8937 24.0804 31.882 23.1699V8.73633C31.9308 8.26913 31.8639 7.7971 31.6873 7.36183C31.5107 6.92656 31.2297 6.54141 30.8692 6.24033ZM30.6436 23.1715C30.6506 23.8368 30.459 24.489 30.0933 25.0448C29.7276 25.6006 29.2045 26.0347 28.5908 26.2915C28.2708 26.3539 27.5556 26.5699 25.4132 27.2323C22.5556 28.1139 18.6404 29.3235 17.2372 29.5651L15.6868 29.5763C15.2724 29.4755 11.8004 27.9955 9.26597 26.9155C6.65477 25.7955 4.39877 24.8355 3.90277 24.6755C3.52771 24.5088 3.20656 24.2408 2.97537 23.9016C2.74418 23.5625 2.6121 23.1656 2.59397 22.7555V17.6227L1.76837 16.3859V14.6675L1.35717 14.2547V12.4147L2.18117 12.0003V9.70593L2.94117 8.18593L3.00677 7.49793C3.00677 7.09793 3.00677 5.87873 4.99077 5.21313C5.39557 5.12993 14.9204 3.14433 16.6868 2.68673C16.9927 2.526 17.3338 2.44402 17.6794 2.44822C18.025 2.45241 18.364 2.54263 18.666 2.71073L29.386 6.83553L29.6068 6.87713C29.755 6.91897 29.8896 6.99897 29.9972 7.10913C30.2416 7.29666 30.4303 7.54722 30.543 7.8339C30.6558 8.12057 30.6883 8.43255 30.6372 8.73633L30.6436 23.1715Z" fill="#1E2330"/>
</svg>
