<svg width="56" height="57" viewBox="0 0 56 57" fill="none" xmlns="http://www.w3.org/2000/svg">
<g clip-path="url(#clip0_52_321)">
<g clip-path="url(#clip1_52_321)">
<path d="M0 10.2865C0 5.1318 4.17867 0.953125 9.33333 0.953125H46.6667C51.8214 0.953125 56 5.1318 56 10.2865V47.6198C56 52.7745 51.8214 56.9531 46.6667 56.9531H9.33333C4.17867 56.9531 0 52.7745 0 47.6198V10.2865Z" fill="#F1EFE3"/>
<path d="M18.8226 25.9492C19.3164 27.5867 19.9142 29.1225 20.5641 30.6041C21.6817 33.2575 22.4355 34.6611 23.4775 36.4025C24.7511 38.4819 26.157 40.8495 28.4702 42.383C30.1597 43.5006 32.2153 44.0724 34.1907 44.0724C36.9742 44.0724 39.3655 42.8508 40.9013 41.4189C42.4089 40.0154 44.3606 37.3099 44.3606 32.0312C44.3606 30.2118 45.1663 28.65 45.7641 27.4024C45.7641 27.3764 45.7901 27.3244 45.842 27.2205C46.0759 26.7006 46.3619 26.0249 46.3619 25.349C46.3619 24.8552 46.2319 24.2834 45.894 23.7896C45.3742 22.9058 44.4385 22.594 43.5784 22.594C41.577 22.594 40.1972 23.9975 39.4953 25.4294L39.2614 25.8973C38.9756 25.4813 38.6896 25.0395 38.4557 24.6496C37.728 23.3761 37.3122 22.5184 36.9483 21.4244C36.6623 20.5666 36.4284 19.5789 36.2724 18.7708C35.8306 16.2213 35.1028 15.3896 33.9048 15.0777C33.0212 14.8438 31.9814 15.0257 31.2253 15.5195C30.7079 14.3499 29.8241 13.8301 28.6522 13.8301C26.9887 13.8301 25.4789 14.9217 25.4789 16.7695C25.4789 17.0034 25.5048 17.2373 25.5308 17.5233C25.3229 17.4712 25.089 17.4452 24.8551 17.4452C23.0617 17.4452 21.7337 18.6929 21.7337 20.3846C21.7337 20.7745 21.7857 21.2164 21.9157 21.7362C21.7597 21.7102 21.6037 21.7102 21.4478 21.7102C20.5641 21.7622 19.7584 22.1001 19.1841 22.8019C18.6147 23.4777 18.3808 24.5173 18.8226 25.9492Z" fill="#1F1F1A"/>
<path d="M20.3039 25.4826C20.07 24.7288 20.096 24.157 20.3819 23.7931C20.6678 23.4552 21.0577 23.2993 21.5255 23.2732C22.3313 23.2473 22.6432 23.8191 23.111 25.3007C23.3969 26.2363 23.9687 27.5903 24.3066 28.344C24.7485 29.2537 25.3722 30.4753 25.6582 30.8936C25.8921 31.2574 26.1 31.3614 26.3339 31.3614C26.7498 31.3614 27.0617 31.1275 27.0617 30.7116C27.0617 30.4776 26.8278 30.0877 26.6978 29.8538C26.4639 29.412 25.97 28.5283 25.6322 27.7746C25.2683 26.9428 24.8525 25.9031 24.5145 24.9651C24.3066 24.4193 24.0727 23.6396 23.8388 22.8598C23.4749 21.6642 23.293 20.9364 23.293 20.3882C23.293 19.5565 23.9167 19.0107 24.8525 19.0107C25.5282 19.0107 25.97 19.3486 26.256 20.5702C26.4899 21.6877 26.9058 23.5096 27.5036 24.9391C27.8934 25.8748 28.4653 27.1248 28.8032 27.7486C29.0111 28.1125 29.245 28.4243 29.245 28.5543C29.245 28.7363 28.9071 29.0221 28.6212 29.412C28.4393 29.6459 28.3613 29.8019 28.3613 29.9838C28.3613 30.1398 28.4653 30.2958 28.6212 30.5037C28.7771 30.7116 28.9331 30.9196 29.115 30.9196C29.245 30.9196 29.323 30.8675 29.401 30.7636C30.2067 29.7499 31.0904 29.0481 32.1065 28.474C33.3021 27.7982 34.526 27.4603 35.4877 27.2524C35.9555 27.1484 36.0855 27.0444 36.0855 26.7846C36.0855 26.4726 35.8516 26.2907 35.5397 26.2647C35.3058 26.2387 35.0978 26.2647 34.7339 26.2907C34.4741 26.3166 34.3441 26.1866 34.1881 25.8488C33.7203 24.8611 32.8105 23.1953 32.2648 21.064C32.0309 20.1543 31.8228 19.1926 31.693 17.9426C31.6149 17.3708 31.7189 17.1629 32.0048 16.903C32.3687 16.591 33.0186 16.4611 33.5123 16.591C34.1102 16.747 34.4221 17.2149 34.7339 19.0366C34.8899 19.8943 35.1498 20.986 35.4617 21.9241C35.8516 23.1197 36.3454 24.1097 37.0992 25.4353C37.515 26.1631 38.0349 26.9169 38.5808 27.647C38.4767 27.9588 38.2948 28.1668 37.697 28.6607C37.0992 29.1544 36.5014 29.6743 35.9555 30.636C35.5656 31.3377 35.3837 32.1175 35.3837 32.6374C35.3837 33.1312 35.4877 33.2352 35.7997 33.2352C36.3454 33.2352 36.7872 33.1312 36.8133 32.8972C36.9432 31.9615 37.0992 31.3637 37.619 30.6596C37.9309 30.2697 38.4767 29.7759 38.9186 29.386C39.7503 28.7103 40.0362 28.3204 40.3221 27.3587C40.4521 26.9169 40.6081 26.5009 40.816 26.111C41.3098 25.2014 42.1936 24.1618 43.5734 24.1618C44.0153 24.1618 44.3792 24.2916 44.6131 24.6555C44.7431 24.8635 44.795 25.1494 44.795 25.3574C44.795 25.8252 44.4571 26.4749 44.3012 26.7869C43.7294 28.0085 42.7937 29.8822 42.7937 32.0396C42.7937 36.7464 41.1303 39.088 39.8283 40.2836C38.5547 41.4792 36.551 42.5213 34.1858 42.5213C32.4964 42.5213 30.7525 42.0274 29.323 41.0916C27.3216 39.7661 26.0716 37.6844 24.7981 35.6051C23.7844 33.9157 23.0826 32.5877 21.9887 30.0146C21.372 28.5236 20.7977 27.0681 20.3039 25.4826Z" fill="#FFE450"/>
<path d="M26.9888 16.7702C26.9888 15.7825 27.8984 15.3926 28.6522 15.3926C29.4579 15.3926 29.7439 15.7825 29.9518 16.6142C30.1338 17.2899 30.2117 17.9137 30.2896 18.6415C30.3937 19.3693 30.7576 21.0352 30.8615 21.451C31.2513 22.8805 32.0311 24.5724 32.9668 26.5997C32.421 26.7816 31.6932 27.0935 31.1994 27.3535C30.5756 27.6913 30.4456 27.6913 30.1857 27.1975C29.6399 26.1838 29.25 25.4301 28.9121 24.544C28.6262 23.8163 28.3404 22.9845 28.1064 22.0204C27.7165 20.383 27.6645 19.9152 27.3527 19.159C27.1707 18.3816 26.9888 17.4199 26.9888 16.7702Z" fill="#FFE450"/>
<path d="M17.6789 34.1806C17.1283 34.5208 14.2101 36.0496 13.551 36.293C13.0807 36.4679 12.5704 36.4254 12.2703 35.5369C11.9016 34.4382 12.4192 34.1783 13.1564 33.8923C13.8084 33.6395 16.5139 32.6613 17.1425 32.4912C17.5844 32.373 17.8915 32.5219 18.1042 33.0535C18.3381 33.6372 18.1775 33.8711 17.6789 34.1806Z" fill="#1F1F1A"/>
<path d="M15.2734 27.9868C14.489 28.0081 11.2306 27.8687 10.4863 27.7954C9.83887 27.7316 9.57659 27.4457 9.64748 26.5077C9.72309 25.5011 10.1153 25.4396 10.7509 25.5011C11.4882 25.572 14.9026 26.1272 15.446 26.295C16.0083 26.4699 16.0863 26.725 16.0178 27.2165C15.9304 27.8545 15.6421 27.975 15.2734 27.9868Z" fill="#1F1F1A"/>
<path d="M15.6779 21.3891C14.78 21.1055 12.1146 19.4917 11.4199 19.0759C10.7914 18.6977 10.7111 18.3575 11.1482 17.5282C11.5357 16.7956 11.9658 16.6681 12.6037 16.9988C13.3434 17.384 15.9542 19.4161 16.4529 19.8177C16.9348 20.2053 16.8687 20.4061 16.6159 20.9047C16.363 21.4033 16.1268 21.5309 15.6779 21.3891Z" fill="#1F1F1A"/>
</g>
</g>
<defs>
<clipPath id="clip0_52_321">
<rect width="56" height="56" fill="white" transform="translate(0 0.953125)"/>
</clipPath>
<clipPath id="clip1_52_321">
<rect width="56" height="56" fill="white" transform="translate(0 0.953125)"/>
</clipPath>
</defs>
</svg>
