<svg width="57" height="57" viewBox="0 0 57 57" fill="none" xmlns="http://www.w3.org/2000/svg">
<g clip-path="url(#clip0_52_336)">
<g clip-path="url(#clip1_52_336)">
<path d="M0.328125 10.2865C0.328125 5.1318 4.5068 0.953125 9.66146 0.953125H46.9948C52.1495 0.953125 56.3281 5.1318 56.3281 10.2865V47.6198C56.3281 52.7745 52.1495 56.9531 46.9948 56.9531H9.66146C4.5068 56.9531 0.328125 52.7745 0.328125 47.6198V10.2865Z" fill="black"/>
<path d="M15.3518 41.512C18.1251 37.0185 21.2156 34.9145 26.066 36.174C29.0161 36.9426 31.9062 38.0365 35.4687 38.0365C39.7304 38.0365 41.7381 37.1715 42.2716 36.8906C42.3679 36.8417 42.4248 36.7485 42.4248 36.638V28.7794C42.4248 28.6405 42.2794 28.5474 42.158 28.6058C41.4761 28.9341 39.4652 29.6933 35.4702 29.6933C30.1288 29.6933 26.3108 27.1836 21.5013 27.1836C17.4306 27.1836 15.3045 28.1638 14.7504 28.4574C14.6525 28.5095 14.5957 28.6026 14.5957 28.7099V41.4868C14.5957 41.7819 15.1024 41.9129 15.3518 41.512Z" fill="white"/>
<path d="M42.4184 25.5736C42.4184 25.6778 42.36 25.774 42.2701 25.8229C41.7303 26.0992 39.7257 26.9656 35.4639 26.9656C30.1257 26.9656 26.3044 24.4592 21.495 24.4592C17.6831 24.4592 15.5759 25.3147 14.8688 25.6667C14.741 25.7298 14.5957 25.6429 14.5957 25.5009V17.6391C14.5957 17.5349 14.651 17.4418 14.7441 17.3929C15.2982 17.0914 17.4243 16.1191 21.495 16.1191C26.3029 16.1191 30.1257 18.6256 35.4639 18.6256C39.4588 18.6256 41.4729 17.8632 42.1485 17.5428C42.2731 17.4844 42.4184 17.5744 42.4184 17.7118V25.5736Z" fill="white"/>
</g>
</g>
<defs>
<clipPath id="clip0_52_336">
<rect width="56" height="56" fill="white" transform="translate(0.328125 0.953125)"/>
</clipPath>
<clipPath id="clip1_52_336">
<rect width="56" height="56" fill="white" transform="translate(0.328125 0.953125)"/>
</clipPath>
</defs>
</svg>
