<svg width="57" height="57" viewBox="0 0 57 57" fill="none" xmlns="http://www.w3.org/2000/svg">
<g clip-path="url(#clip0_52_347)">
<g clip-path="url(#clip1_52_347)">
<path d="M0.65625 10.2865C0.65625 5.1318 4.83492 0.953125 9.98958 0.953125H47.3229C52.4776 0.953125 56.6562 5.1318 56.6562 10.2865V47.6198C56.6562 52.7745 52.4776 56.9531 47.3229 56.9531H9.98958C4.83492 56.9531 0.65625 52.7745 0.65625 47.6198V10.2865Z" fill="#992C87"/>
<path fill-rule="evenodd" clip-rule="evenodd" d="M23.9899 28.9538C25.2786 28.9538 26.3232 27.9091 26.3232 26.6204C26.3232 25.3317 25.2786 24.2871 23.9899 24.2871C22.7012 24.2871 21.6566 25.3317 21.6566 26.6204C21.6566 27.9091 22.7012 28.9538 23.9899 28.9538ZM23.9899 30.1204C19.3232 30.1204 19.3232 33.6204 19.3232 33.6204H28.6566C28.6566 33.6204 28.6566 30.1204 23.9899 30.1204Z" fill="white"/>
<path fill-rule="evenodd" clip-rule="evenodd" d="M30.9893 26.6198C30.9893 25.9754 31.5116 25.4531 32.1559 25.4531H36.8226C37.4669 25.4531 37.9893 25.9754 37.9893 26.6198C37.9893 27.2641 37.4669 27.7865 36.8226 27.7865H32.1559C31.5116 27.7865 30.9893 27.2641 30.9893 26.6198Z" fill="white"/>
<path fill-rule="evenodd" clip-rule="evenodd" d="M30.9893 31.2858C30.9893 30.6415 31.5116 30.1191 32.1559 30.1191H36.8226C37.4669 30.1191 37.9893 30.6415 37.9893 31.2858C37.9893 31.9302 37.4669 32.4525 36.8226 32.4525H32.1559C31.5116 32.4525 30.9893 31.9302 30.9893 31.2858Z" fill="white"/>
<path fill-rule="evenodd" clip-rule="evenodd" d="M37.9896 19.0371H19.3229C17.7121 19.0371 16.4062 20.343 16.4062 21.9538V35.9538C16.4062 37.5646 17.7121 38.8704 19.3229 38.8704H37.9896C39.6004 38.8704 40.9062 37.5646 40.9062 35.9538V21.9538C40.9062 20.343 39.6004 19.0371 37.9896 19.0371ZM19.3229 17.2871C16.7456 17.2871 14.6562 19.3765 14.6562 21.9538V35.9538C14.6562 38.5311 16.7456 40.6204 19.3229 40.6204H37.9896C40.5669 40.6204 42.6562 38.5311 42.6562 35.9538V21.9538C42.6562 19.3765 40.5669 17.2871 37.9896 17.2871H19.3229Z" fill="white"/>
</g>
</g>
<defs>
<clipPath id="clip0_52_347">
<rect width="56" height="56" fill="white" transform="translate(0.65625 0.953125)"/>
</clipPath>
<clipPath id="clip1_52_347">
<rect width="56" height="56" fill="white" transform="translate(0.65625 0.953125)"/>
</clipPath>
</defs>
</svg>
