<svg width="57" height="57" viewBox="0 0 57 57" fill="none" xmlns="http://www.w3.org/2000/svg">
<g clip-path="url(#clip0_52_299)">
<g clip-path="url(#clip1_52_299)">
<path d="M45.1281 0.171875H11.5281C5.34254 0.171875 0.328125 5.18629 0.328125 11.3719V44.9719C0.328125 51.1575 5.34254 56.1719 11.5281 56.1719H45.1281C51.3137 56.1719 56.3281 51.1575 56.3281 44.9719V11.3719C56.3281 5.18629 51.3137 0.171875 45.1281 0.171875Z" fill="#780016"/>
<path fill-rule="evenodd" clip-rule="evenodd" d="M22.1279 19.0723C22.1279 17.1393 23.6949 15.5723 25.6279 15.5723C26.901 15.5723 28.0154 16.2521 28.6279 17.2685C29.2403 16.2521 30.3547 15.5723 31.6279 15.5723C33.561 15.5723 35.1279 17.1393 35.1279 19.0723C35.1279 20.0516 34.7256 20.9371 34.0774 21.5722H39.6279L40.128 22.0723V27.0723L39.6279 27.5722H38.1279V39.0722L37.628 39.5723H19.6279L19.128 39.0722V27.5722H17.6279L17.1279 27.0723V22.0723L17.6279 21.5722H23.1785C22.5301 20.9371 22.1279 20.0516 22.1279 19.0723ZM31.6279 22.5723H29.1279H28.6279H28.1279H25.6279H18.1279V26.5722H19.6279H37.628H39.1279V22.5723H31.6279ZM28.1279 21.5722V19.0723C28.1279 17.6916 27.0087 16.5723 25.6279 16.5723C24.2472 16.5723 23.1279 17.6916 23.1279 19.0723C23.1279 20.4529 24.2472 21.5722 25.6279 21.5722H28.1279ZM31.6279 21.5722C33.0087 21.5722 34.128 20.4529 34.128 19.0723C34.128 17.6916 33.0087 16.5723 31.6279 16.5723C30.2472 16.5723 29.1279 17.6916 29.1279 19.0723V21.5722H31.6279ZM37.1279 27.5722H29.1279V38.5723H37.1279V27.5722ZM28.1279 27.5722H20.128V38.5723H28.1279V27.5722Z" fill="white"/>
</g>
</g>
<defs>
<clipPath id="clip0_52_299">
<rect width="56" height="56" fill="white" transform="translate(0.328125 0.171875)"/>
</clipPath>
<clipPath id="clip1_52_299">
<rect width="56" height="56" fill="white" transform="translate(0.328125 0.171875)"/>
</clipPath>
</defs>
</svg>
