<svg width="12" height="12" viewBox="0 0 12 12" fill="none" xmlns="http://www.w3.org/2000/svg">
<path d="M5.50001 6.50001H0.500007C0.358007 6.50001 0.23934 6.45201 0.144007 6.35601C0.0486736 6.26001 0.000673516 6.14101 6.84931e-06 5.99901C-0.000659817 5.85701 0.0473402 5.73834 0.144007 5.64301C0.240674 5.54767 0.35934 5.50001 0.500007 5.50001H5.50001V0.500007C5.50001 0.358007 5.54801 0.23934 5.64401 0.144007C5.74001 0.0486736 5.85901 0.000673516 6.00101 6.84931e-06C6.14301 -0.000659817 6.26167 0.0473402 6.35701 0.144007C6.45234 0.240674 6.50001 0.35934 6.50001 0.500007V5.50001H11.5C11.642 5.50001 11.7607 5.54801 11.856 5.64401C11.9513 5.74001 11.9993 5.85901 12 6.00101C12.0007 6.14301 11.9527 6.26167 11.856 6.35701C11.7593 6.45234 11.6407 6.50001 11.5 6.50001H6.50001V11.5C6.50001 11.642 6.45201 11.7607 6.35601 11.856C6.26001 11.9513 6.14101 11.9993 5.99901 12C5.85701 12.0007 5.73834 11.9527 5.64301 11.856C5.54767 11.7593 5.50001 11.6407 5.50001 11.5V6.50001Z" fill="black" fill-opacity="0.55"/>
</svg>
