<svg width="14" height="8" viewBox="0 0 14 8" fill="none" xmlns="http://www.w3.org/2000/svg">
<path d="M4 1.75C3.7875 1.75 3.6095 1.678 3.466 1.534C3.3225 1.39 3.2505 1.212 3.25 1C3.2495 0.788 3.3215 0.61 3.466 0.466C3.6105 0.322 3.7885 0.25 4 0.25H13C13.2125 0.25 13.3908 0.322 13.5348 0.466C13.6788 0.61 13.7505 0.788 13.75 1C13.7495 1.212 13.6775 1.39025 13.534 1.53475C13.3905 1.67925 13.2125 1.751 13 1.75H4ZM4 4.75C3.7875 4.75 3.6095 4.678 3.466 4.534C3.3225 4.39 3.2505 4.212 3.25 4C3.2495 3.788 3.3215 3.61 3.466 3.466C3.6105 3.322 3.7885 3.25 4 3.25H13C13.2125 3.25 13.3908 3.322 13.5348 3.466C13.6788 3.61 13.7505 3.788 13.75 4C13.7495 4.212 13.6775 4.39025 13.534 4.53475C13.3905 4.67925 13.2125 4.751 13 4.75H4ZM4 7.75C3.7875 7.75 3.6095 7.678 3.466 7.534C3.3225 7.39 3.2505 7.212 3.25 7C3.2495 6.788 3.3215 6.61 3.466 6.466C3.6105 6.322 3.7885 6.25 4 6.25H13C13.2125 6.25 13.3908 6.322 13.5348 6.466C13.6788 6.61 13.7505 6.788 13.75 7C13.7495 7.212 13.6775 7.39025 13.534 7.53475C13.3905 7.67925 13.2125 7.751 13 7.75H4ZM1 1.75C0.787503 1.75 0.609503 1.678 0.466003 1.534C0.322503 1.39 0.250503 1.212 0.250003 1C0.249503 0.788 0.321503 0.61 0.466003 0.466C0.610503 0.322 0.788503 0.25 1 0.25C1.2115 0.25 1.38975 0.322 1.53475 0.466C1.67975 0.61 1.7515 0.788 1.75 1C1.7485 1.212 1.6765 1.39025 1.534 1.53475C1.3915 1.67925 1.2135 1.751 1 1.75ZM1 4.75C0.787503 4.75 0.609503 4.678 0.466003 4.534C0.322503 4.39 0.250503 4.212 0.250003 4C0.249503 3.788 0.321503 3.61 0.466003 3.466C0.610503 3.322 0.788503 3.25 1 3.25C1.2115 3.25 1.38975 3.322 1.53475 3.466C1.67975 3.61 1.7515 3.788 1.75 4C1.7485 4.212 1.6765 4.39025 1.534 4.53475C1.3915 4.67925 1.2135 4.751 1 4.75ZM1 7.75C0.787503 7.75 0.609503 7.678 0.466003 7.534C0.322503 7.39 0.250503 7.212 0.250003 7C0.249503 6.788 0.321503 6.61 0.466003 6.466C0.610503 6.322 0.788503 6.25 1 6.25C1.2115 6.25 1.38975 6.322 1.53475 6.466C1.67975 6.61 1.7515 6.788 1.75 7C1.7485 7.212 1.6765 7.39025 1.534 7.53475C1.3915 7.67925 1.2135 7.751 1 7.75Z" fill="#676767"/>
</svg>
