<svg width="26" height="26" viewBox="0 0 26 26" fill="none" xmlns="http://www.w3.org/2000/svg">
<path d="M12.9997 22.75C14.2801 22.75 15.5479 22.4979 16.7308 22.0079C17.9138 21.5179 18.9886 20.7997 19.894 19.8943C20.7993 18.989 21.5175 17.9141 22.0075 16.7312C22.4975 15.5483 22.7497 14.2804 22.7497 13C22.7497 11.7197 22.4975 10.4518 22.0075 9.26888C21.5175 8.08595 20.7993 7.01112 19.894 6.10575C18.9886 5.20038 17.9138 4.4822 16.7308 3.99222C15.5479 3.50223 14.2801 3.25004 12.9997 3.25004C10.4138 3.25004 7.93386 4.27727 6.10538 6.10575C4.2769 7.93423 3.24967 10.4142 3.24967 13C3.24967 15.5859 4.2769 18.0659 6.10538 19.8943C7.93386 21.7228 10.4138 22.75 12.9997 22.75ZM24.9163 13C24.9163 19.5813 19.5809 24.9167 12.9997 24.9167C6.41843 24.9167 1.08301 19.5813 1.08301 13C1.08301 6.41879 6.41843 1.08337 12.9997 1.08337C19.5809 1.08337 24.9163 6.41879 24.9163 13ZM16.2497 17.7819L11.9163 13.4485V5.95837H14.083V12.5515L17.7815 16.25L16.2497 17.7819Z" fill="#1877F2"/>
</svg>
