<svg width="26" height="26" viewBox="0 0 26 26" fill="none" xmlns="http://www.w3.org/2000/svg">
<path d="M15.7083 19.5001C14.95 19.5001 14.309 19.2383 13.7854 18.7147C13.2618 18.1911 13 17.5501 13 16.7917C13 16.0334 13.2618 15.3924 13.7854 14.8688C14.309 14.3452 14.95 14.0834 15.7083 14.0834C16.4667 14.0834 17.1076 14.3452 17.6313 14.8688C18.1549 15.3924 18.4167 16.0334 18.4167 16.7917C18.4167 17.5501 18.1549 18.1911 17.6313 18.7147C17.1076 19.2383 16.4667 19.5001 15.7083 19.5001ZM3.25 23.8334V4.33341H6.5V2.16675H8.66667V4.33341H17.3333V2.16675H19.5V4.33341H22.75V23.8334H3.25ZM5.41667 21.6667H20.5833V10.8334H5.41667V21.6667ZM5.41667 8.66675H20.5833V6.50008H5.41667V8.66675Z" fill="#1877F2"/>
</svg>
