<svg width="25" height="25" viewBox="0 0 25 25" fill="none" xmlns="http://www.w3.org/2000/svg">
<path d="M14.1653 12.7549L11.3186 12.7426H10.6543V13.7286L10.6573 14.7596L13.2256 14.7709H14.1653V12.7549Z" fill="#FCEA2B"/>
<path d="M10.6887 14.5099L10.5743 13.2619C10.5732 13.2526 10.5688 13.244 10.5619 13.2376C10.555 13.2312 10.5461 13.2274 10.5367 13.2269C10.5367 13.2269 4.22068 12.5646 4.22168 12.6046L4.30801 15.1593L10.2447 14.6233C10.251 14.6233 10.2557 14.8689 10.2613 14.8666C10.308 14.8453 10.5717 14.6576 10.6617 14.6353C10.68 14.6306 10.691 14.5286 10.6887 14.5099ZM19.258 13.5249H14.2833V14.6853C14.2833 14.7156 14.454 14.7429 14.4467 14.7709L20.1577 14.7076L20.242 12.6809C20.1637 13.3423 19.5047 13.3353 19.258 13.5249Z" fill="#6A462F"/>
<path d="M4.30298 12.9082C4.30298 12.9082 4.22931 13.5442 5.55631 13.5249C6.55065 13.5106 10.507 13.5249 10.507 13.5249L10.8483 12.8922L13.9813 12.8656L14.447 13.4312C14.447 13.4312 18.437 13.6012 19.2583 13.5249C20.338 13.4242 20.2583 12.2282 20.2583 12.1916V7.27722H4.30298V12.9082ZM14.4643 14.5212H4.47765L4.47798 14.5279C4.65765 14.5336 4.30298 14.9669 4.30298 15.1476L4.46831 20.2536H20.1113V14.8662C20.1113 14.7016 19.9823 14.5716 20.1386 14.5439L20.056 14.5212H14.4643Z" fill="#A57939"/>
<path d="M10.7019 5.9339V4.65424H14.1436V5.9339M20.0276 14.8662V20.2536H4.38457V14.8596M14.2002 13.5249H19.1746C19.4398 13.5249 19.6941 13.4195 19.8817 13.232C20.0692 13.0445 20.1746 12.7901 20.1746 12.5249V7.27724H4.21924V12.5249C4.21924 12.7901 4.32459 13.0445 4.51213 13.232C4.69967 13.4195 4.95402 13.5249 5.21924 13.5249H10.4232" stroke="black" stroke-width="0.5" stroke-linecap="round" stroke-linejoin="round"/>
<path d="M10.6055 12.7426H14.0471V14.6852H10.6055V12.7426Z" stroke="black" stroke-width="0.5" stroke-linecap="round" stroke-linejoin="round"/>
</svg>
