<svg width="16" height="16" viewBox="0 0 16 16" fill="none" xmlns="http://www.w3.org/2000/svg">
<g clip-path="url(#clip0_12_1182)">
<path d="M14.5775 15.1111H5.86634C5.72489 15.1111 5.58924 15.0549 5.48922 14.9549C5.3892 14.8549 5.33301 14.7192 5.33301 14.5778V5.86668C5.33301 5.72523 5.3892 5.58957 5.48922 5.48955C5.58924 5.38953 5.72489 5.33334 5.86634 5.33334H14.5775C14.7189 5.33334 14.8546 5.38953 14.9546 5.48955C15.0546 5.58957 15.1108 5.72523 15.1108 5.86668V14.5778C15.1108 14.7192 15.0546 14.8549 14.9546 14.9549C14.8546 15.0549 14.7189 15.1111 14.5775 15.1111Z" stroke="#676B5F" stroke-linecap="round" stroke-linejoin="round"/>
<path d="M10.6664 5.33333V1.42222C10.6664 1.28077 10.6103 1.14511 10.5102 1.0451C10.4102 0.945076 10.2746 0.888885 10.1331 0.888885H1.42201C1.28056 0.888885 1.1449 0.945076 1.04488 1.0451C0.944862 1.14511 0.888672 1.28077 0.888672 1.42222V10.1333C0.888672 10.2748 0.944862 10.4104 1.04488 10.5105C1.1449 10.6105 1.28056 10.6667 1.42201 10.6667H5.33312" stroke="#676B5F" stroke-linecap="round" stroke-linejoin="round"/>
</g>
<defs>
<clipPath id="clip0_12_1182">
<rect width="16" height="16" fill="white"/>
</clipPath>
</defs>
</svg>
