<svg width="10" height="10" viewBox="0 0 10 10" fill="none" xmlns="http://www.w3.org/2000/svg">
<path fill-rule="evenodd" clip-rule="evenodd" d="M0.646227 0.646654C0.739977 0.55302 0.86706 0.500427 0.99956 0.500427C1.13206 0.500427 1.25914 0.55302 1.35289 0.646654L9.35289 8.64665C9.40202 8.69243 9.44142 8.74763 9.46875 8.80896C9.49608 8.87029 9.51077 8.9365 9.51195 9.00364C9.51314 9.07078 9.50079 9.13746 9.47564 9.19972C9.45049 9.26198 9.41306 9.31853 9.36559 9.36601C9.31811 9.41349 9.26155 9.45092 9.19929 9.47607C9.13703 9.50122 9.07035 9.51357 9.00321 9.51238C8.93608 9.5112 8.86987 9.4965 8.80853 9.46918C8.7472 9.44185 8.692 9.40245 8.64623 9.35332L0.646227 1.35332C0.552593 1.25957 0.5 1.13249 0.5 0.999987C0.5 0.867487 0.552593 0.740404 0.646227 0.646654Z" fill="black" fill-opacity="0.5"/>
<path fill-rule="evenodd" clip-rule="evenodd" d="M9.35258 0.646654C9.44621 0.740404 9.49881 0.867487 9.49881 0.999987C9.49881 1.13249 9.44621 1.25957 9.35258 1.35332L1.35258 9.35332C1.2578 9.44164 1.13243 9.48972 1.0029 9.48744C0.873364 9.48515 0.749774 9.43268 0.658165 9.34107C0.566557 9.24946 0.514082 9.12587 0.511797 8.99634C0.509511 8.8668 0.557593 8.74144 0.645913 8.64665L8.64591 0.646654C8.73966 0.55302 8.86675 0.500427 8.99925 0.500427C9.13175 0.500427 9.25883 0.55302 9.35258 0.646654Z" fill="black" fill-opacity="0.5"/>
</svg>
