<svg width="16" height="16" viewBox="0 0 16 16" fill="none" xmlns="http://www.w3.org/2000/svg">
<g clip-path="url(#clip0_12_1176)">
<path fill-rule="evenodd" clip-rule="evenodd" d="M6.56648 -0.000488281L6.22674 0.140237L4.94549 1.42149L4.80476 1.76123V2.88279H0.480469H0V3.84373H0.480469H1.92189L1.92195 14.894L2.40242 15.3745H12.9728L13.4532 14.894L13.4531 3.84373H14.8945H15.375V2.88279H14.8945H10.5704V1.76123L10.4296 1.42149L9.14841 0.140237L8.80867 -0.000488281H6.56648ZM9.60947 2.88279V1.96025L8.60965 0.960449H6.7655L5.7657 1.96025V2.88279H9.60947ZM4.80476 3.84373H2.88283L2.88289 14.4136H12.4923L12.4922 3.84373H10.5704H9.60947H5.7657H4.80476ZM6.72656 6.72654V7.20701V11.0508V11.5312H5.76562V11.0508V7.20701V6.72654H6.72656ZM9.60938 7.20701V6.72654H8.64844V7.20701V11.0508V11.5312H9.60938V11.0508V7.20701Z" fill="#676B5F"/>
</g>
<defs>
<clipPath id="clip0_12_1176">
<rect width="15.375" height="15.375" fill="white"/>
</clipPath>
</defs>
</svg>
