<svg width="25" height="25" viewBox="0 0 25 25" fill="none" xmlns="http://www.w3.org/2000/svg">
<g clip-path="url(#clip0_22_47)">
<path d="M20.2168 21.1369H4.2168C3.1168 21.1369 2.2168 20.2369 2.2168 19.1369V8.6869C2.2168 8.0369 2.5168 7.4369 3.0668 7.0369L12.2168 0.636902L21.3668 7.0369C21.9168 7.3869 22.2168 8.0369 22.2168 8.6869V19.1369C22.2168 20.2369 21.3168 21.1369 20.2168 21.1369Z" fill="#78909C"/>
<path d="M7.2168 1.1369H17.2168V16.6369H7.2168V1.1369Z" fill="#AED581"/>
<path d="M6.7168 0.636902V17.1369H17.7168V0.636902H6.7168ZM16.7168 16.1369H7.7168V1.6369H16.7168V16.1369Z" fill="#558B2F"/>
<path d="M17.2168 2.1369C17.2168 2.9869 17.0668 3.6369 16.2168 3.6369C15.3668 3.6369 14.7168 2.9869 14.7168 2.1369C14.7168 1.2869 15.3668 1.1369 16.2168 1.1369C17.0668 1.1369 17.2168 1.2869 17.2168 2.1369ZM8.2168 1.1369C9.0668 1.1369 9.7168 1.2869 9.7168 2.1369C9.7168 2.9869 9.0668 3.6369 8.2168 3.6369C7.3668 3.6369 7.2168 2.9869 7.2168 2.1369C7.2168 1.2869 7.3668 1.1369 8.2168 1.1369Z" fill="#558B2F"/>
<path d="M12.2168 5.6369C12.7691 5.6369 13.2168 5.18919 13.2168 4.6369C13.2168 4.08462 12.7691 3.6369 12.2168 3.6369C11.6645 3.6369 11.2168 4.08462 11.2168 4.6369C11.2168 5.18919 11.6645 5.6369 12.2168 5.6369Z" fill="#558B2F"/>
<path d="M12.2168 13.6369C13.8737 13.6369 15.2168 12.2938 15.2168 10.6369C15.2168 8.98005 13.8737 7.6369 12.2168 7.6369C10.5599 7.6369 9.2168 8.98005 9.2168 10.6369C9.2168 12.2938 10.5599 13.6369 12.2168 13.6369Z" fill="#558B2F"/>
<path d="M20.2168 21.1369H4.2168C3.1168 21.1369 2.2168 20.2369 2.2168 19.1369V9.1369L12.2168 15.6369L22.2168 9.1369V19.1369C22.2168 20.2369 21.3168 21.1369 20.2168 21.1369Z" fill="#CFD8DC"/>
</g>
<defs>
<clipPath id="clip0_22_47">
<rect width="24" height="24" fill="white" transform="translate(0.216797 0.636902)"/>
</clipPath>
</defs>
</svg>
