<svg width="32" height="30" viewBox="0 0 32 30" fill="none" xmlns="http://www.w3.org/2000/svg">
<path d="M25.6911 25.0563C27.3407 24.6435 28.5711 24.2323 28.5711 24.2323C28.9498 24.0389 29.2667 23.7431 29.4856 23.3785C29.7046 23.0139 29.8168 22.5951 29.8095 22.1699V19.6947C29.1743 21.9436 27.7001 23.8628 25.6911 25.0563ZM27.3407 17.6339L24.4607 16.3955V18.0403C24.3781 18.7648 24.1536 19.466 23.8 20.1037C23.4464 20.7415 22.9706 21.3033 22.3999 21.7571C22.8127 21.7571 22.8127 22.1699 22.8127 22.5827L22.3999 23.4067L24.0495 24.2323C27.3487 22.9939 28.1743 19.2835 28.5855 17.2211L27.3407 17.6339ZM16.2063 22.5827C15.7504 21.8293 15.4684 20.9837 15.3807 20.1075V26.7059C15.424 27.019 15.569 27.3091 15.7935 27.5315H17.0303C18.741 27.42 20.4175 27.0005 21.9791 26.2931C20.8022 26.1405 19.6739 25.7286 18.6756 25.0869C17.6772 24.4453 16.8339 23.5899 16.2063 22.5827ZM19.5055 14.3347C19.4845 14.784 19.6316 15.225 19.9183 15.5715C20.3295 15.5715 20.7423 15.5715 21.1551 14.7459C21.5679 13.9203 21.1551 13.0963 20.3295 13.0963C20.0975 13.2149 19.8999 13.391 19.7556 13.6078C19.6113 13.8247 19.5252 14.075 19.5055 14.3347ZM15.7935 11.8595V16.8083C16.024 15.123 16.6734 13.5224 17.6821 12.1529C18.6908 10.7833 20.0268 9.68839 21.5679 8.96833L17.0303 10.2051C16.2063 10.2099 15.7935 11.0355 15.7935 11.8595ZM14.1439 11.8595C14.0878 11.1033 14.3077 10.3523 14.7628 9.74577C15.2179 9.13918 15.8773 8.71804 16.6191 8.56033L26.9279 6.08673L18.2687 2.78753H16.6191L5.07188 5.26113C5.07188 5.26113 3.83348 5.67393 3.83348 6.49793V7.32033L3.00948 8.97313V11.4467L2.18388 11.8595V12.6851L3.00948 13.0963V15.1603L3.83348 16.3971V21.7587C3.83107 21.8678 3.85079 21.9762 3.89143 22.0775C3.93207 22.1787 3.99279 22.2707 4.06994 22.3479C4.14709 22.425 4.23906 22.4857 4.34031 22.5264C4.44157 22.567 4.55 22.5867 4.65908 22.5843C5.48308 22.9955 10.8447 25.4643 14.1439 26.7075V11.8595ZM24.4543 11.8595L27.3343 13.0963L28.1599 12.6851C27.6578 12.0554 27.2414 11.3619 26.9215 10.6227C26.1695 10.1651 25.324 9.88291 24.4479 9.79713L24.4543 11.8595ZM28.9903 7.32033L23.2175 8.55713C24.0153 8.34227 24.8559 8.34358 25.6531 8.56093C26.4502 8.77828 27.1751 9.20384 27.7535 9.79393C28.2481 10.0988 28.6584 10.523 28.9466 11.0276C29.2348 11.5321 29.3918 12.101 29.4031 12.6819V7.32033C29.4031 6.91073 28.9903 6.91073 28.9903 7.32033ZM30.8687 5.24033C30.5651 4.93369 30.1737 4.72904 29.7487 4.65473L19.1615 0.58593C18.7181 0.344116 18.2226 0.21356 17.7176 0.205478C17.2126 0.197396 16.7132 0.312029 16.2623 0.53953C14.6447 0.94433 4.83828 2.98913 4.67028 3.02753C3.86607 3.19261 3.14175 3.62587 2.61592 4.25634C2.09008 4.88682 1.7939 5.67715 1.77588 6.49793V6.76673L1.01588 8.28033L0.959877 10.2419L0.134277 10.6547V13.7635L0.545477 14.1763V15.7571L1.37108 16.9939V21.7571C1.38593 22.4118 1.5891 23.0484 1.95628 23.5906C2.32345 24.1329 2.83908 24.5579 3.44148 24.8147C3.96948 24.9907 6.42068 26.0355 8.79028 27.0451C14.6479 29.5411 15.3087 29.7955 15.5951 29.7955H16.4207L17.3455 29.7859C18.9327 29.5219 22.8911 28.2995 25.7839 27.4067C27.1791 26.9747 28.6223 26.5299 28.7919 26.4979L29.0671 26.4307C29.9091 26.0842 30.6276 25.4928 31.1294 24.7331C31.6312 23.9733 31.8932 23.0804 31.8815 22.1699V7.73633C31.9303 7.26913 31.8635 6.7971 31.6868 6.36183C31.5102 5.92656 31.2292 5.54141 30.8687 5.24033ZM30.6431 22.1715C30.6501 22.8368 30.4585 23.489 30.0928 24.0448C29.7271 24.6006 29.204 25.0347 28.5903 25.2915C28.2703 25.3539 27.5551 25.5699 25.4127 26.2323C22.5551 27.1139 18.6399 28.3235 17.2367 28.5651L15.6863 28.5763C15.2719 28.4755 11.7999 26.9955 9.26548 25.9155C6.65428 24.7955 4.39828 23.8355 3.90228 23.6755C3.52722 23.5088 3.20607 23.2408 2.97488 22.9016C2.74369 22.5625 2.61161 22.1656 2.59348 21.7555V16.6227L1.76788 15.3859V13.6675L1.35668 13.2547V11.4147L2.18068 11.0003V8.70593L2.94068 7.18593L3.00628 6.49793C3.00628 6.09793 3.00628 4.87873 4.99028 4.21313C5.39508 4.12993 14.9199 2.14433 16.6863 1.68673C16.9922 1.526 17.3334 1.44402 17.6789 1.44822C18.0245 1.45241 18.3635 1.54263 18.6655 1.71073L29.3855 5.83553L29.6063 5.87713C29.7545 5.91897 29.8891 5.99897 29.9967 6.10913C30.2411 6.29666 30.4298 6.54722 30.5425 6.8339C30.6553 7.12057 30.6878 7.43255 30.6367 7.73633L30.6431 22.1715Z" fill="#1877F2"/>
</svg>
