<svg width="25" height="25" viewBox="0 0 25 25" fill="none" xmlns="http://www.w3.org/2000/svg">
<g clip-path="url(#clip0_22_84)">
<path d="M4.30411 18.8994C5.80411 17.3994 5.95411 17.0244 6.89161 17.9619C7.82911 18.8994 7.45411 19.0119 5.95411 20.5494C4.82911 21.6744 3.40411 21.4494 3.40411 21.4494C3.40411 21.4494 3.17911 20.0244 4.30411 18.8994Z" fill="#FF9D27"/>
<path d="M7.15393 20.4369C7.75393 18.8619 7.94143 18.6744 7.07893 18.1869C6.21643 17.6994 6.21643 18.0369 5.65393 19.6119C5.20393 20.7744 5.72893 21.8244 5.72893 21.8244C5.72893 21.8244 6.74143 21.6369 7.15393 20.4369Z" fill="#FF9D27"/>
<path d="M6.29181 18.9744C6.62931 18.1119 6.62931 17.9244 7.07931 18.1869C7.56681 18.4494 7.45431 18.5619 7.11681 19.4244C6.89181 20.0619 6.32931 20.2119 6.32931 20.2119C6.32931 20.2119 6.06681 19.6494 6.29181 18.9744Z" fill="#FDF516"/>
<path d="M6.6292 17.7744C6.1417 16.9119 5.9542 17.0994 4.3792 17.6994C3.2167 18.1494 2.9917 19.1244 2.9917 19.1244C2.9917 19.1244 4.0417 19.6494 5.2042 19.1994C6.7792 18.5994 7.1167 18.5994 6.6292 17.7744Z" fill="#FF9D27"/>
<path d="M5.84199 18.5619C6.70449 18.2244 6.89199 18.2244 6.62949 17.7744C6.36699 17.2869 6.25449 17.3994 5.39199 17.7369C4.75449 17.9619 4.60449 18.5244 4.60449 18.5244C4.60449 18.5244 5.20449 18.7869 5.84199 18.5619Z" fill="#FDF516"/>
<path d="M5.42937 18.4869C6.25437 17.6619 6.32937 17.4369 6.85437 17.9619C7.37937 18.4869 7.15437 18.5619 6.32937 19.3869C5.69187 20.0244 4.90437 19.8744 4.90437 19.8744C4.90437 19.8744 4.82937 19.1244 5.42937 18.4869Z" fill="#FDF516"/>
<path d="M7.1543 14.8869C4.8293 10.9869 0.966797 12.5994 0.966797 12.5994C0.966797 12.5994 6.4793 7.08693 10.1918 10.7994L7.1543 14.8869Z" fill="#3BAACF"/>
<path d="M8.9543 11.9994L10.1543 10.7994C6.4793 7.08693 0.966797 12.5994 0.966797 12.5994C0.966797 12.5994 5.8043 9.14943 8.9543 11.9994Z" fill="#428BC1"/>
<path d="M9.9668 17.6994C13.8668 20.0244 12.2543 23.8869 12.2543 23.8869C12.2543 23.8869 17.7668 18.3744 14.0543 14.6619L9.9668 17.6994Z" fill="#3BAACF"/>
<path d="M12.8544 15.8994L14.0544 14.6994C17.7669 18.4119 12.2544 23.9244 12.2544 23.9244C12.2544 23.9244 15.7044 19.0494 12.8544 15.8994Z" fill="#428BC1"/>
<path d="M18.5168 12.2244C14.1293 16.5744 9.2918 18.9369 7.6043 17.2494C5.9168 15.5619 8.2793 10.7244 12.6293 6.33693C17.7293 1.23693 23.3918 1.46193 23.3918 1.46193C23.3918 1.46193 23.5793 7.12443 18.5168 12.2244Z" fill="#C5D0D8"/>
<path d="M17.3918 10.9869C13.0418 15.3369 8.69184 18.1869 7.67934 17.1744C6.66684 16.1619 9.51684 11.8119 13.8668 7.4619C18.9668 2.3619 23.4668 1.3869 23.4668 1.3869C23.4668 1.3869 22.4918 5.8869 17.3918 10.9869Z" fill="#DAE3EA"/>
<path d="M9.3293 18.4494C9.1418 18.6369 8.8418 18.6369 8.6543 18.4494L6.4043 16.1994C6.2168 16.0119 6.2168 15.6744 6.4043 15.4869L7.0793 14.8119L10.0043 17.7369L9.3293 18.4494Z" fill="#C94747"/>
<path d="M8.69173 17.7744C8.50423 17.9619 8.27923 18.0369 8.16673 17.9244L6.89172 16.6494C6.77922 16.5369 6.85423 16.3119 7.04173 16.1244L7.71673 15.4494L9.36672 17.0994L8.69173 17.7744Z" fill="#F15744"/>
<path d="M8.05406 18.7119C7.94156 18.8244 7.67906 18.8244 7.56656 18.7119L6.10406 17.2494C5.99156 17.1369 6.02906 16.9119 6.14156 16.7994L6.59156 16.3494L8.50406 18.2619L8.05406 18.7119Z" fill="#3E4347"/>
<path d="M7.75449 18.4119C7.64199 18.5244 7.41699 18.5619 7.34199 18.4869L6.32949 17.4744C6.25449 17.3994 6.29199 17.2119 6.44199 17.0994L6.89199 16.6494L8.20449 17.9619L7.75449 18.4119Z" fill="#62727A"/>
<path d="M23.3919 1.46193C23.3919 1.46193 21.3669 1.38693 18.6294 2.43693L22.4169 6.22443C23.4669 3.48693 23.3919 1.46193 23.3919 1.46193Z" fill="#C94747"/>
<path d="M23.3918 1.46191C23.3918 1.46191 21.7793 1.79941 19.3418 3.18691L21.6668 5.51191C23.0543 3.07441 23.3918 1.46191 23.3918 1.46191Z" fill="#F15744"/>
<path d="M16.5293 10.1994C17.5648 10.1994 18.4043 9.35994 18.4043 8.3244C18.4043 7.28887 17.5648 6.4494 16.5293 6.4494C15.4938 6.4494 14.6543 7.28887 14.6543 8.3244C14.6543 9.35994 15.4938 10.1994 16.5293 10.1994Z" fill="#EDF4F9"/>
<path d="M16.5295 9.56191C17.2129 9.56191 17.767 9.00787 17.767 8.32441C17.767 7.64096 17.2129 7.08691 16.5295 7.08691C15.846 7.08691 15.292 7.64096 15.292 8.32441C15.292 9.00787 15.846 9.56191 16.5295 9.56191Z" fill="#3BAACF"/>
<path d="M12.7793 13.9494C13.8148 13.9494 14.6543 13.1099 14.6543 12.0744C14.6543 11.0389 13.8148 10.1994 12.7793 10.1994C11.7438 10.1994 10.9043 11.0389 10.9043 12.0744C10.9043 13.1099 11.7438 13.9494 12.7793 13.9494Z" fill="#EDF4F9"/>
<path d="M12.7795 13.3119C13.4629 13.3119 14.017 12.7579 14.017 12.0744C14.017 11.391 13.4629 10.8369 12.7795 10.8369C12.096 10.8369 11.542 11.391 11.542 12.0744C11.542 12.7579 12.096 13.3119 12.7795 13.3119Z" fill="#3BAACF"/>
<path d="M18.5544 3.22438C18.4419 3.33688 18.2169 3.33688 18.1044 3.22438C17.9919 3.11188 17.9919 2.88688 18.1044 2.77438C18.2169 2.66188 18.4419 2.66188 18.5544 2.77438C18.6669 2.88688 18.6669 3.11188 18.5544 3.22438Z" fill="white"/>
<path d="M19.1921 4.16189C19.3578 4.16189 19.4921 4.02758 19.4921 3.86189C19.4921 3.6962 19.3578 3.56189 19.1921 3.56189C19.0264 3.56189 18.8921 3.6962 18.8921 3.86189C18.8921 4.02758 19.0264 4.16189 19.1921 4.16189Z" fill="white"/>
<path d="M20.092 5.06185C20.2577 5.06185 20.392 4.92754 20.392 4.76185C20.392 4.59617 20.2577 4.46185 20.092 4.46185C19.9263 4.46185 19.792 4.59617 19.792 4.76185C19.792 4.92754 19.9263 5.06185 20.092 5.06185Z" fill="white"/>
<path d="M20.9543 5.96188C21.12 5.96188 21.2543 5.82756 21.2543 5.66188C21.2543 5.49619 21.12 5.36188 20.9543 5.36188C20.7886 5.36188 20.6543 5.49619 20.6543 5.66188C20.6543 5.82756 20.7886 5.96188 20.9543 5.96188Z" fill="white"/>
<path d="M21.8542 6.82437C22.0199 6.82437 22.1542 6.69005 22.1542 6.52437C22.1542 6.35868 22.0199 6.22437 21.8542 6.22437C21.6885 6.22437 21.5542 6.35868 21.5542 6.52437C21.5542 6.69005 21.6885 6.82437 21.8542 6.82437Z" fill="white"/>
</g>
<defs>
<clipPath id="clip0_22_84">
<rect width="24" height="24" fill="white" transform="translate(0.216797 0.636902)"/>
</clipPath>
</defs>
</svg>
