<svg width="20" height="15" viewBox="0 0 20 15" fill="none" xmlns="http://www.w3.org/2000/svg">
<path d="M11.07 6.41004C11.6774 5.5613 12.0041 4.54375 12.0041 3.50004C12.0041 2.45632 11.6774 1.43877 11.07 0.590037C11.6388 0.202568 12.3118 -0.00316434 13 3.67965e-05C13.9283 3.67965e-05 14.8185 0.368786 15.4749 1.02516C16.1313 1.68154 16.5 2.57178 16.5 3.50004C16.5 4.42829 16.1313 5.31853 15.4749 5.97491C14.8185 6.63129 13.9283 7.00004 13 7.00004C12.3118 7.00324 11.6388 6.79751 11.07 6.41004ZM3.5 3.50004C3.5 2.8078 3.70527 2.13111 4.08986 1.55554C4.47444 0.979969 5.02107 0.531365 5.66061 0.266459C6.30015 0.0015519 7.00388 -0.0677598 7.68282 0.0672885C8.36175 0.202337 8.98539 0.53568 9.47487 1.02516C9.96436 1.51465 10.2977 2.13829 10.4327 2.81722C10.5678 3.49615 10.4985 4.19989 10.2336 4.83943C9.96867 5.47897 9.52007 6.0256 8.9445 6.41018C8.36892 6.79477 7.69223 7.00004 7 7.00004C6.07174 7.00004 5.1815 6.63129 4.52513 5.97491C3.86875 5.31853 3.5 4.42829 3.5 3.50004ZM5.5 3.50004C5.5 3.79671 5.58797 4.08672 5.7528 4.33339C5.91762 4.58007 6.15189 4.77232 6.42597 4.88586C6.70006 4.99939 7.00166 5.02909 7.29264 4.97121C7.58361 4.91334 7.85088 4.77048 8.06066 4.5607C8.27044 4.35092 8.4133 4.08364 8.47118 3.79267C8.52906 3.5017 8.49935 3.2001 8.38582 2.92601C8.27229 2.65192 8.08003 2.41765 7.83335 2.25283C7.58668 2.08801 7.29667 2.00004 7 2.00004C6.60218 2.00004 6.22064 2.15807 5.93934 2.43938C5.65804 2.72068 5.5 3.10221 5.5 3.50004ZM14 13V15H0V13C0 13 0 9.00004 7 9.00004C14 9.00004 14 13 14 13ZM12 13C11.86 12.22 10.67 11 7 11C3.33 11 2.07 12.31 2 13M13.95 9.00004C14.5629 9.47677 15.064 10.0819 15.4182 10.7729C15.7723 11.4639 15.9709 12.2241 16 13V15H20V13C20 13 20 9.37004 13.94 9.00004H13.95Z" fill="#616161"/>
</svg>
