<svg width="25" height="25" viewBox="0 0 25 25" fill="none" xmlns="http://www.w3.org/2000/svg">
<path d="M21.3487 22.324H3.72119C3.667 22.324 3.61334 22.3133 3.56328 22.2926C3.51322 22.2719 3.46773 22.2415 3.42941 22.2032C3.3911 22.1649 3.36071 22.1194 3.33998 22.0693C3.31925 22.0192 3.30858 21.9656 3.30859 21.9114V4.28387C3.30858 4.22968 3.31925 4.17603 3.33998 4.12596C3.36071 4.0759 3.3911 4.03041 3.42941 3.9921C3.46773 3.95378 3.51322 3.92339 3.56328 3.90266C3.61334 3.88193 3.667 3.87126 3.72119 3.87128H13.8462L21.7613 11.7863V21.9114C21.7613 21.9655 21.7506 22.0192 21.7299 22.0693C21.7092 22.1193 21.6788 22.1648 21.6405 22.2032C21.6021 22.2415 21.5567 22.2719 21.5066 22.2926C21.4565 22.3133 21.4029 22.324 21.3487 22.324Z" fill="#FFD469"/>
<path d="M11.6009 8.53077H6.12329C5.81331 8.53077 5.56201 8.27947 5.56201 7.96948C5.56201 7.6595 5.81331 7.4082 6.12329 7.4082H11.6009C11.9109 7.4082 12.1622 7.6595 12.1622 7.96948C12.1622 8.27947 11.9109 8.53077 11.6009 8.53077ZM12.1622 11.6433C12.1622 11.3333 11.9109 11.082 11.6009 11.082H6.12329C5.81331 11.082 5.56201 11.3333 5.56201 11.6433C5.56201 11.9533 5.81331 12.2046 6.12329 12.2046H11.6009C11.9109 12.2045 12.1622 11.9533 12.1622 11.6433ZM12.1622 15.3171C12.1622 15.0072 11.9109 14.7558 11.6009 14.7558H6.12329C5.81331 14.7558 5.56201 15.0071 5.56201 15.3171C5.56201 15.6271 5.81331 15.8784 6.12329 15.8784H11.6009C11.9109 15.8783 12.1622 15.627 12.1622 15.3171ZM16.9043 18.9909C16.9043 18.6809 16.653 18.4296 16.343 18.4296H6.12329C5.81331 18.4296 5.56201 18.6809 5.56201 18.9909C5.56201 19.3009 5.81331 19.5522 6.12329 19.5522H16.343C16.653 19.5521 16.9043 19.3008 16.9043 18.9909ZM18.795 15.3171C18.795 15.0072 18.5437 14.7558 18.2337 14.7558H14.4524C14.1424 14.7558 13.8911 15.0071 13.8911 15.3171C13.8911 15.6271 14.1424 15.8784 14.4524 15.8784H18.2337C18.5437 15.8783 18.795 15.627 18.795 15.3171Z" fill="#597B91"/>
<path d="M13.8462 3.87128L21.7612 11.7863H15.5286C14.5994 11.7863 13.8462 11.0331 13.8462 10.1039V3.87128Z" fill="#FFB636"/>
</svg>
