<svg width="15" height="15" viewBox="0 0 15 15" fill="none" xmlns="http://www.w3.org/2000/svg">
<path fill-rule="evenodd" clip-rule="evenodd" d="M5.79941 2.10001C4.84463 2.10001 3.92896 2.47929 3.25383 3.15442C2.5787 3.82955 2.19941 4.74523 2.19941 5.70001C2.19941 6.65479 2.5787 7.57046 3.25383 8.24559C3.92896 8.92072 4.84463 9.30001 5.79941 9.30001C6.75419 9.30001 7.66987 8.92072 8.345 8.24559C9.02013 7.57046 9.39941 6.65479 9.39941 5.70001C9.39941 4.74523 9.02013 3.82955 8.345 3.15442C7.66987 2.47929 6.75419 2.10001 5.79941 2.10001ZM0.399414 5.70001C0.399306 4.85014 0.599792 4.01225 0.984568 3.25447C1.36934 2.4967 1.92754 1.84044 2.61377 1.33908C3.3 0.837714 4.09487 0.505397 4.93375 0.369156C5.77262 0.232915 6.63181 0.296596 7.44143 0.555021C8.25105 0.813446 8.98825 1.25932 9.59306 1.85637C10.1979 2.45343 10.6532 3.18481 10.9221 3.99103C11.1909 4.79724 11.2657 5.65554 11.1403 6.4961C11.0149 7.33667 10.6929 8.13577 10.2004 8.82841L14.5357 13.1637C14.6997 13.3334 14.7904 13.5608 14.7883 13.7968C14.7863 14.0327 14.6916 14.2585 14.5248 14.4253C14.3579 14.5922 14.1322 14.6869 13.8962 14.6889C13.6602 14.691 13.4329 14.6002 13.2631 14.4363L8.92871 10.1019C8.12084 10.6764 7.17043 11.0174 6.18162 11.0875C5.19282 11.1577 4.20378 10.9543 3.32288 10.4997C2.44199 10.0451 1.70323 9.35673 1.18757 8.51012C0.671898 7.66351 0.399221 6.6913 0.399414 5.70001Z" fill="#18181B"/>
</svg>
