<svg width="26" height="26" viewBox="0 0 26 26" fill="none" xmlns="http://www.w3.org/2000/svg">
<path fill-rule="evenodd" clip-rule="evenodd" d="M13.8424 0C14.8077 0 15.7461 0.368901 16.4188 1.01009C17.0902 1.65504 17.461 2.53965 17.4327 3.4368C17.4354 3.63882 17.5068 3.87221 17.6362 4.07673C17.8506 4.41552 18.189 4.65393 18.5908 4.7518C18.9925 4.84465 19.4132 4.79446 19.7704 4.59746C21.4961 3.68023 23.6924 4.22982 24.6779 5.82337L25.5178 7.17726C25.5394 7.21365 25.5583 7.24878 25.5744 7.28517C26.4669 8.85488 25.871 10.8311 24.2128 11.7333C23.9714 11.8626 23.7759 12.0432 23.6411 12.2616C23.4321 12.5991 23.3742 13.0006 23.4793 13.3695C23.5872 13.746 23.8447 14.0584 24.2074 14.2516C25.0257 14.6895 25.6365 15.4273 25.8805 16.2793C26.1245 17.1301 25.991 18.0536 25.5151 18.8152L24.6199 20.203C23.6344 21.779 21.4382 22.3248 19.73 21.4063C19.5021 21.2846 19.2392 21.2181 18.9777 21.2118H18.9696C18.58 21.2118 18.1796 21.3661 17.8884 21.6359C17.5931 21.9107 17.4313 22.2771 17.434 22.6661C17.4246 24.5093 15.8135 26 13.8424 26H12.1531C10.1726 26 8.5615 24.5018 8.5615 22.6586C8.55881 22.4314 8.4887 22.1956 8.35792 21.991C8.14626 21.6472 7.80381 21.4013 7.40879 21.3034C7.01646 21.2055 6.58639 21.2595 6.23316 21.4502C5.38649 21.8894 4.39017 21.996 3.47879 21.7576C2.56875 21.518 1.78275 20.9358 1.32167 20.1641L0.479042 18.8127C-0.506492 17.2217 0.0799749 15.1827 1.7868 14.2642C2.2708 14.0044 2.57145 13.5201 2.57145 13.0006C2.57145 12.4812 2.2708 11.9956 1.7868 11.7358C0.0786268 10.8123 -0.506492 8.7683 0.477694 7.17726L1.39177 5.78071C2.36383 4.20723 4.56139 3.65262 6.27495 4.5686C6.50819 4.69784 6.76165 4.76309 7.01916 4.7656C7.85909 4.7656 8.5615 4.12065 8.57498 3.32764C8.56959 2.45307 8.94035 1.61363 9.61579 0.979972C10.2939 0.34757 11.1945 0 12.1531 0H13.8424ZM13.8424 1.88215H12.1531C11.7352 1.88215 11.3442 2.03398 11.0489 2.30751C10.755 2.58231 10.5946 2.94744 10.5973 3.33642C10.569 5.17089 8.95787 6.64775 7.00703 6.64775C6.38146 6.64148 5.77882 6.48463 5.25572 6.19352C4.52095 5.80455 3.56103 6.04421 3.13095 6.7406L2.21822 8.13716C1.80028 8.81222 2.05644 9.70436 2.80064 10.1071C3.90482 10.7019 4.59375 11.8111 4.59375 13.0006C4.59375 14.1901 3.90482 15.2981 2.79795 15.8941C2.05778 16.2931 1.80163 17.1803 2.23035 17.8704L3.08107 19.2356C3.29139 19.5881 3.63518 19.8429 4.0329 19.947C4.42927 20.0499 4.86609 20.006 5.2301 19.8178C5.76534 19.5254 6.3882 19.3736 7.01377 19.3736C7.32251 19.3736 7.63124 19.41 7.93324 19.4853C8.84462 19.7136 9.63602 20.2808 10.1052 21.0424C10.4099 21.5205 10.5784 22.0789 10.5838 22.6485C10.5838 23.4641 11.2876 24.1179 12.1531 24.1179H13.8424C14.7039 24.1179 15.4077 23.4679 15.4117 22.6661C15.4063 21.7802 15.7784 20.9383 16.4593 20.3046C17.1307 19.6797 18.069 19.3046 19.0074 19.3297C19.6221 19.3435 20.214 19.4978 20.7358 19.7739C21.4867 20.1741 22.4453 19.9357 22.8794 19.2456L23.7746 17.8566C23.9741 17.5366 24.0321 17.1351 23.9256 16.7649C23.8204 16.3948 23.5562 16.0735 23.2003 15.8841C22.3671 15.4374 21.7725 14.7171 21.5258 13.8539C21.2818 13.0069 21.4152 12.0821 21.8912 11.3205C22.2012 10.8186 22.6556 10.3957 23.2003 10.1046C23.931 9.70687 24.1871 8.81724 23.7625 8.12461C23.7449 8.097 23.7288 8.06814 23.7153 8.03803L22.9252 6.76319C22.4951 6.06679 21.5379 5.82713 20.787 6.22489C19.9754 6.67159 19.0101 6.79958 18.0825 6.57246C17.1563 6.34911 16.3797 5.80329 15.8957 5.03286C15.5856 4.55103 15.4171 3.99015 15.4117 3.41924C15.4238 2.99011 15.2621 2.60489 14.9681 2.32257C14.6756 2.0415 14.2644 1.88215 13.8424 1.88215ZM13.0037 8.75086C15.5208 8.75086 17.5687 10.6581 17.5687 13.0008C17.5687 15.3434 15.5208 17.2481 13.0037 17.2481C10.4866 17.2481 8.43868 15.3434 8.43868 13.0008C8.43868 10.6581 10.4866 8.75086 13.0037 8.75086ZM13.0037 10.633C11.6016 10.633 10.461 11.6958 10.461 13.0008C10.461 14.3057 11.6016 15.366 13.0037 15.366C14.4058 15.366 15.5464 14.3057 15.5464 13.0008C15.5464 11.6958 14.4058 10.633 13.0037 10.633Z" fill="#1877F2"/>
</svg>
