<svg width="24" height="24" viewBox="0 0 24 24" fill="none" xmlns="http://www.w3.org/2000/svg">
<path fill-rule="evenodd" clip-rule="evenodd" d="M12.7776 0C13.6687 0 14.5348 0.340524 15.1558 0.932387C15.7756 1.52773 16.1178 2.34429 16.0917 3.17243C16.0942 3.35891 16.1601 3.57434 16.2796 3.76314C16.4775 4.07586 16.7898 4.29593 17.1607 4.38627C17.5316 4.47198 17.9198 4.42566 18.2496 4.24381C19.8426 3.39713 21.8699 3.90444 22.7796 5.37542L23.5549 6.62516C23.5748 6.65875 23.5922 6.69118 23.6072 6.72477C24.431 8.17374 23.881 9.99797 22.3502 10.8308C22.1275 10.95 21.947 11.1168 21.8226 11.3184C21.6297 11.6299 21.5762 12.0006 21.6732 12.3411C21.7728 12.6886 22.0105 12.977 22.3453 13.1553C23.1007 13.5596 23.6644 14.2406 23.8897 15.0271C24.1149 15.8124 23.9917 16.6648 23.5524 17.3679L22.7261 18.6489C21.8164 20.1037 19.7891 20.6075 18.2123 19.7597C18.002 19.6473 17.7593 19.5859 17.5179 19.5801H17.5104C17.1507 19.5801 16.7811 19.7226 16.5123 19.9716C16.2398 20.2253 16.0904 20.5635 16.0929 20.9225C16.0842 22.624 14.5971 24 12.7776 24H11.2183C9.39009 24 7.90293 22.6171 7.90293 20.9156C7.90044 20.7059 7.83572 20.4882 7.71501 20.2994C7.51962 19.982 7.20352 19.755 6.83888 19.6647C6.47674 19.5743 6.07974 19.6241 5.75369 19.8002C4.97215 20.2056 4.05247 20.304 3.21119 20.084C2.37116 19.8627 1.64562 19.3253 1.22 18.613L0.442193 17.3656C-0.467531 15.8969 0.073823 14.0148 1.64935 13.1669C2.09612 12.9272 2.37365 12.4801 2.37365 12.0006C2.37365 11.5211 2.09612 11.0728 1.64935 10.8331C0.0725785 9.9806 -0.467531 8.09382 0.440948 6.62516L1.28471 5.33604C2.18199 3.8836 4.21052 3.37165 5.79227 4.21717C6.00756 4.33647 6.24153 4.3967 6.47923 4.39902C7.25454 4.39902 7.90293 3.80368 7.91537 3.07167C7.91039 2.26437 8.25263 1.4895 8.87612 0.90459C9.5021 0.320834 10.3334 0 11.2183 0H12.7776ZM12.7776 1.73737H11.2183C10.8325 1.73737 10.4716 1.87752 10.199 2.13001C9.92771 2.38367 9.77962 2.72072 9.78211 3.07977C9.75597 4.77313 8.26881 6.13638 6.46802 6.13638C5.89058 6.13059 5.33429 5.98581 4.85143 5.7171C4.17318 5.35804 3.2871 5.57927 2.89011 6.22209L2.04759 7.51122C1.6618 8.13436 1.89825 8.95787 2.58521 9.32967C3.60445 9.87867 4.24038 10.9026 4.24038 12.0006C4.24038 13.0986 3.60445 14.1213 2.58272 14.6715C1.89949 15.0398 1.66304 15.8587 2.05879 16.4957L2.84406 17.7559C3.0382 18.0814 3.35555 18.3165 3.72267 18.4126C4.08856 18.5076 4.49177 18.4671 4.82778 18.2933C5.32185 18.0235 5.8968 17.8833 6.47425 17.8833C6.75924 17.8833 7.04423 17.9169 7.32299 17.9864C8.16427 18.1972 8.89479 18.7207 9.32787 19.4238C9.60912 19.8651 9.76469 20.3805 9.76966 20.9063C9.76966 21.6592 10.4193 22.2626 11.2183 22.2626H12.7776C13.5728 22.2626 14.2225 21.6627 14.2262 20.9225C14.2212 20.1048 14.5647 19.3276 15.1932 18.7427C15.8129 18.1659 16.6791 17.8196 17.5453 17.8428C18.1127 17.8555 18.6591 17.998 19.1407 18.2528C19.8339 18.6223 20.7187 18.4022 21.1194 17.7652L21.9458 16.483C22.13 16.1876 22.1835 15.817 22.0852 15.4753C21.9881 15.1336 21.7442 14.8371 21.4156 14.6622C20.6465 14.2499 20.0977 13.5851 19.87 12.7882C19.6447 12.0064 19.7679 11.1527 20.2072 10.4497C20.4935 9.98639 20.9128 9.59606 21.4156 9.32735C22.0901 8.96019 22.3266 8.13899 21.9346 7.49964C21.9184 7.47416 21.9035 7.44752 21.891 7.41972L21.1617 6.24294C20.7648 5.60012 19.8812 5.37889 19.188 5.74606C18.4388 6.15839 17.5477 6.27653 16.6915 6.06689C15.8366 5.86072 15.1197 5.35688 14.673 4.64572C14.3867 4.20095 14.2312 3.68322 14.2262 3.15622C14.2374 2.7601 14.0881 2.40452 13.8168 2.14391C13.5467 1.88447 13.1671 1.73737 12.7776 1.73737ZM12.0034 8.07772C14.3269 8.07772 16.2173 9.83825 16.2173 12.0007C16.2173 14.1631 14.3269 15.9214 12.0034 15.9214C9.67994 15.9214 7.78955 14.1631 7.78955 12.0007C7.78955 9.83825 9.67994 8.07772 12.0034 8.07772ZM12.0034 9.81509C10.7091 9.81509 9.65629 10.7961 9.65629 12.0007C9.65629 13.2053 10.7091 14.184 12.0034 14.184C13.2977 14.184 14.3505 13.2053 14.3505 12.0007C14.3505 10.7961 13.2977 9.81509 12.0034 9.81509Z" fill="#676767"/>
</svg>
