<svg width="24" height="24" viewBox="0 0 24 24" fill="none" xmlns="http://www.w3.org/2000/svg">
<g opacity="0.65">
<path d="M20.9683 18.448C20.9586 18.7932 20.8796 19.1329 20.7361 19.4469C20.5925 19.7609 20.3874 20.0429 20.1327 20.2761C19.8781 20.5093 19.5791 20.689 19.2537 20.8044C18.9283 20.9198 18.583 20.9687 18.2383 20.948C16.0853 20.96 13.9323 20.948 11.7793 20.948C11.6467 20.948 11.5195 20.8953 11.4257 20.8016C11.332 20.7078 11.2793 20.5806 11.2793 20.448C11.2793 20.3154 11.332 20.1882 11.4257 20.0945C11.5195 20.0007 11.6467 19.948 11.7793 19.948C13.9793 19.948 16.1793 19.98 18.3793 19.948C19.4863 19.932 19.9683 19.1 19.9683 18.11V5.64701C19.9755 5.3324 19.8867 5.02305 19.7138 4.76011C19.5409 4.49718 19.292 4.2931 19.0003 4.17501C18.6551 4.08031 18.2958 4.04813 17.9393 4.08001H11.7793C11.6467 4.08001 11.5195 4.02734 11.4257 3.93357C11.332 3.8398 11.2793 3.71262 11.2793 3.58001C11.2793 3.44741 11.332 3.32023 11.4257 3.22646C11.5195 3.13269 11.6467 3.08001 11.7793 3.08001C14.0033 3.08001 16.2443 2.99501 18.4663 3.08001C18.8066 3.08862 19.1417 3.16481 19.4523 3.30416C19.7628 3.4435 20.0426 3.64322 20.2752 3.89168C20.5079 4.14015 20.6888 4.4324 20.8074 4.75144C20.9261 5.07047 20.9801 5.40991 20.9663 5.75001L20.9683 18.448Z" fill="black"/>
<path d="M3.17569 11.663C3.09163 11.7452 3.04225 11.8565 3.03769 11.974C3.03902 11.988 3.03702 12.0024 3.03169 12.017C3.02369 12.039 3.03169 12.044 3.03769 12.058C3.04199 12.1759 3.0914 12.2875 3.17569 12.37L6.84469 16.039C6.93899 16.1301 7.06529 16.1805 7.19639 16.1794C7.32749 16.1782 7.45289 16.1256 7.5456 16.0329C7.6383 15.9402 7.69088 15.8148 7.69202 15.6837C7.69316 15.5526 7.64277 15.4263 7.55169 15.332L4.73669 12.516H15.4787C15.6113 12.516 15.7385 12.4633 15.8322 12.3696C15.926 12.2758 15.9787 12.1486 15.9787 12.016C15.9787 11.8834 15.926 11.7562 15.8322 11.6625C15.7385 11.5687 15.6113 11.516 15.4787 11.516H4.73669L7.55169 8.70002C7.64277 8.60572 7.69316 8.47941 7.69202 8.34832C7.69088 8.21722 7.6383 8.09181 7.5456 7.99911C7.45289 7.9064 7.32749 7.85382 7.19639 7.85268C7.06529 7.85154 6.93899 7.90194 6.84469 7.99302L3.17569 11.663Z" fill="black"/>
</g>
</svg>
