<svg width="25" height="28" viewBox="0 0 25 28" fill="none" xmlns="http://www.w3.org/2000/svg">
<path d="M12.464 28C14.049 28 14.9856 26.8513 14.9856 25.1282C14.9856 22.1846 13.1844 20.6051 12.9683 14.7897C17.9395 17.8769 18.3718 20.1744 20.8934 21.682C21.5418 22.041 22.0461 22.1846 22.6225 22.1846C23.487 22.1846 24.2075 21.7538 24.7118 20.9641C24.928 20.6051 25 20.1744 25 19.7436C25 18.8821 24.4236 18.0205 23.415 17.4462C20.8213 16.0103 18.4438 16.7282 13.3285 14.0718C18.4438 11.2718 20.8213 11.9897 23.415 10.5538C24.4236 9.90769 25 9.11795 25 8.18462C25 7.82564 24.928 7.39487 24.7118 6.9641C24.2075 6.17436 23.487 5.74359 22.6225 5.74359C22.0461 5.74359 21.5418 5.88718 20.8934 6.24615C18.3718 7.75384 17.9395 10.2667 12.9683 13.2821C13.1124 7.46667 14.9856 5.81539 14.9856 2.8C14.9856 1.07692 14.049 0 12.464 0C10.951 0 10.0144 1.07692 10.0144 2.8C10.0144 5.81539 12.0317 7.39487 12.1758 13.2821C7.06052 10.1949 6.62824 7.75384 4.03458 6.24615C3.45821 5.88718 2.95389 5.74359 2.37752 5.74359C1.51297 5.74359 0.792507 6.17436 0.288184 6.9641C0.0720463 7.39487 0 7.82564 0 8.18462C0 9.11795 0.576369 9.90769 1.58501 10.5538C4.17867 11.9897 6.4121 11.2718 11.6715 14.0718C6.5562 16.8 4.10663 16.0103 1.58501 17.4462C0.576369 18.0205 0 18.8821 0 19.7436C0 20.1744 0.0720463 20.6051 0.288184 20.9641C0.792507 21.7538 1.51297 22.1846 2.37752 22.1846C2.95389 22.1846 3.45821 22.041 4.03458 21.682C6.62824 20.1744 7.06052 17.9487 12.1037 14.7897C11.8876 20.6769 10.0144 22.1128 10.0144 25.1282C10.0144 26.8513 10.951 28 12.464 28Z" fill="#1877F2"/>
</svg>
